<mxfile host="app.diagrams.net" modified="2022-12-04T03:13:04.974Z" agent="5.0 (Windows NT 10.0; Win64; x64) AppleWebKit/537.36 (KHTML, like Gecko) Chrome/108.0.0.0 Safari/537.36" etag="pNIaJ_oN_344G28nUKV3" version="20.6.0" type="github" pages="8">
  <diagram id="UwqQ3IcMhVjuvzqBFAnM" name="Page-1">
    <mxGraphModel dx="868" dy="450" grid="1" gridSize="10" guides="1" tooltips="1" connect="1" arrows="1" fold="1" page="1" pageScale="1" pageWidth="850" pageHeight="1100" math="0" shadow="0">
      <root>
        <mxCell id="0" />
        <mxCell id="1" parent="0" />
        <mxCell id="SsC4X1yO9NzYjltbprky-2" value="Client" style="rounded=0;whiteSpace=wrap;html=1;" parent="1" vertex="1">
          <mxGeometry x="190" y="40" width="120" height="60" as="geometry" />
        </mxCell>
        <mxCell id="SsC4X1yO9NzYjltbprky-3" value="Sever" style="rounded=0;whiteSpace=wrap;html=1;" parent="1" vertex="1">
          <mxGeometry x="454.27" y="40" width="120" height="60" as="geometry" />
        </mxCell>
        <mxCell id="SsC4X1yO9NzYjltbprky-4" value="Database" style="rounded=0;whiteSpace=wrap;html=1;" parent="1" vertex="1">
          <mxGeometry x="700" y="40" width="120" height="60" as="geometry" />
        </mxCell>
        <mxCell id="SsC4X1yO9NzYjltbprky-13" value="" style="edgeStyle=orthogonalEdgeStyle;rounded=0;orthogonalLoop=1;jettySize=auto;html=1;entryX=0;entryY=0.5;entryDx=0;entryDy=0;" parent="1" source="SsC4X1yO9NzYjltbprky-8" target="SsC4X1yO9NzYjltbprky-14" edge="1">
          <mxGeometry relative="1" as="geometry">
            <mxPoint x="245" y="180" as="targetPoint" />
          </mxGeometry>
        </mxCell>
        <mxCell id="SsC4X1yO9NzYjltbprky-8" value="" style="ellipse;fillColor=strokeColor;" parent="1" vertex="1">
          <mxGeometry x="100" y="125" width="30" height="30" as="geometry" />
        </mxCell>
        <mxCell id="SsC4X1yO9NzYjltbprky-35" style="edgeStyle=orthogonalEdgeStyle;rounded=0;orthogonalLoop=1;jettySize=auto;html=1;entryX=0;entryY=0.328;entryDx=0;entryDy=0;entryPerimeter=0;" parent="1" source="SsC4X1yO9NzYjltbprky-9" target="SsC4X1yO9NzYjltbprky-31" edge="1">
          <mxGeometry relative="1" as="geometry">
            <mxPoint x="250" y="330" as="targetPoint" />
            <Array as="points">
              <mxPoint x="160" y="260" />
              <mxPoint x="160" y="330" />
            </Array>
          </mxGeometry>
        </mxCell>
        <mxCell id="SsC4X1yO9NzYjltbprky-36" style="edgeStyle=orthogonalEdgeStyle;rounded=0;orthogonalLoop=1;jettySize=auto;html=1;entryX=0.011;entryY=0.661;entryDx=0;entryDy=0;entryPerimeter=0;" parent="1" source="SsC4X1yO9NzYjltbprky-9" target="SsC4X1yO9NzYjltbprky-30" edge="1">
          <mxGeometry relative="1" as="geometry">
            <Array as="points">
              <mxPoint x="170" y="290" />
            </Array>
          </mxGeometry>
        </mxCell>
        <mxCell id="SsC4X1yO9NzYjltbprky-9" value="" style="html=1;points=[];perimeter=orthogonalPerimeter;fillColor=strokeColor;rotation=90;" parent="1" vertex="1">
          <mxGeometry x="150" y="220" width="5" height="80" as="geometry" />
        </mxCell>
        <mxCell id="SsC4X1yO9NzYjltbprky-17" style="edgeStyle=orthogonalEdgeStyle;rounded=0;orthogonalLoop=1;jettySize=auto;html=1;" parent="1" target="SsC4X1yO9NzYjltbprky-15" edge="1">
          <mxGeometry relative="1" as="geometry">
            <mxPoint x="239.27" y="140" as="sourcePoint" />
          </mxGeometry>
        </mxCell>
        <mxCell id="SsC4X1yO9NzYjltbprky-14" value="Show Login" style="rounded=1;whiteSpace=wrap;html=1;" parent="1" vertex="1">
          <mxGeometry x="210" y="120" width="80" height="40" as="geometry" />
        </mxCell>
        <mxCell id="SsC4X1yO9NzYjltbprky-47" value="" style="edgeStyle=orthogonalEdgeStyle;rounded=0;orthogonalLoop=1;jettySize=auto;html=1;entryX=1;entryY=0.5;entryDx=0;entryDy=0;" parent="1" source="SsC4X1yO9NzYjltbprky-15" target="SsC4X1yO9NzYjltbprky-46" edge="1">
          <mxGeometry relative="1" as="geometry">
            <Array as="points">
              <mxPoint x="570" y="210" />
            </Array>
          </mxGeometry>
        </mxCell>
        <mxCell id="SsC4X1yO9NzYjltbprky-15" value="verify user name and passowrd" style="whiteSpace=wrap;html=1;rounded=1;" parent="1" vertex="1">
          <mxGeometry x="464.27" y="120" width="110" height="40" as="geometry" />
        </mxCell>
        <mxCell id="SsC4X1yO9NzYjltbprky-16" value="" style="endArrow=none;html=1;rounded=0;" parent="1" edge="1">
          <mxGeometry width="50" height="50" relative="1" as="geometry">
            <mxPoint x="400" y="1250" as="sourcePoint" />
            <mxPoint x="400" y="40" as="targetPoint" />
          </mxGeometry>
        </mxCell>
        <mxCell id="SsC4X1yO9NzYjltbprky-18" value="" style="endArrow=none;html=1;rounded=0;" parent="1" edge="1">
          <mxGeometry width="50" height="50" relative="1" as="geometry">
            <mxPoint x="650" y="1250" as="sourcePoint" />
            <mxPoint x="650" y="40" as="targetPoint" />
          </mxGeometry>
        </mxCell>
        <mxCell id="SsC4X1yO9NzYjltbprky-24" style="edgeStyle=orthogonalEdgeStyle;rounded=0;orthogonalLoop=1;jettySize=auto;html=1;exitX=0.038;exitY=0.498;exitDx=0;exitDy=0;exitPerimeter=0;" parent="1" source="SsC4X1yO9NzYjltbprky-46" edge="1">
          <mxGeometry relative="1" as="geometry">
            <mxPoint x="484.27" y="220" as="sourcePoint" />
            <mxPoint x="250" y="160" as="targetPoint" />
            <Array as="points">
              <mxPoint x="250" y="210" />
              <mxPoint x="250" y="160" />
            </Array>
          </mxGeometry>
        </mxCell>
        <mxCell id="SsC4X1yO9NzYjltbprky-25" value="no" style="edgeLabel;html=1;align=center;verticalAlign=middle;resizable=0;points=[];" parent="SsC4X1yO9NzYjltbprky-24" vertex="1" connectable="0">
          <mxGeometry x="-0.6255" y="-2" relative="1" as="geometry">
            <mxPoint as="offset" />
          </mxGeometry>
        </mxCell>
        <mxCell id="SsC4X1yO9NzYjltbprky-27" style="edgeStyle=orthogonalEdgeStyle;rounded=0;orthogonalLoop=1;jettySize=auto;html=1;exitX=0.504;exitY=0.94;exitDx=0;exitDy=0;exitPerimeter=0;entryX=0.167;entryY=0.402;entryDx=0;entryDy=0;entryPerimeter=0;" parent="1" source="SsC4X1yO9NzYjltbprky-46" target="SsC4X1yO9NzYjltbprky-9" edge="1">
          <mxGeometry relative="1" as="geometry">
            <mxPoint x="514.31" y="249.96000000000004" as="sourcePoint" />
            <mxPoint x="110.0099999999999" y="255.42999999999995" as="targetPoint" />
            <Array as="points">
              <mxPoint x="520" y="240" />
              <mxPoint x="160" y="240" />
            </Array>
          </mxGeometry>
        </mxCell>
        <mxCell id="SsC4X1yO9NzYjltbprky-28" value="yes" style="edgeLabel;html=1;align=center;verticalAlign=middle;resizable=0;points=[];" parent="SsC4X1yO9NzYjltbprky-27" vertex="1" connectable="0">
          <mxGeometry x="-0.5837" y="-2" relative="1" as="geometry">
            <mxPoint as="offset" />
          </mxGeometry>
        </mxCell>
        <mxCell id="SsC4X1yO9NzYjltbprky-30" value="Show customer list" style="rounded=1;whiteSpace=wrap;html=1;" parent="1" vertex="1">
          <mxGeometry x="260" y="270" width="120" height="30" as="geometry" />
        </mxCell>
        <mxCell id="SsC4X1yO9NzYjltbprky-41" value="" style="edgeStyle=orthogonalEdgeStyle;rounded=0;orthogonalLoop=1;jettySize=auto;html=1;" parent="1" source="SsC4X1yO9NzYjltbprky-31" target="SsC4X1yO9NzYjltbprky-40" edge="1">
          <mxGeometry relative="1" as="geometry" />
        </mxCell>
        <mxCell id="SsC4X1yO9NzYjltbprky-31" value="Show add customer button" style="rounded=1;whiteSpace=wrap;html=1;" parent="1" vertex="1">
          <mxGeometry x="260" y="320" width="120" height="30" as="geometry" />
        </mxCell>
        <mxCell id="SsC4X1yO9NzYjltbprky-43" value="" style="edgeStyle=orthogonalEdgeStyle;rounded=0;orthogonalLoop=1;jettySize=auto;html=1;" parent="1" source="SsC4X1yO9NzYjltbprky-40" target="SsC4X1yO9NzYjltbprky-42" edge="1">
          <mxGeometry relative="1" as="geometry" />
        </mxCell>
        <mxCell id="SsC4X1yO9NzYjltbprky-40" value="Fill require information" style="whiteSpace=wrap;html=1;rounded=1;" parent="1" vertex="1">
          <mxGeometry x="260" y="370" width="120" height="30" as="geometry" />
        </mxCell>
        <mxCell id="SsC4X1yO9NzYjltbprky-45" value="" style="edgeStyle=orthogonalEdgeStyle;rounded=0;orthogonalLoop=1;jettySize=auto;html=1;" parent="1" source="SsC4X1yO9NzYjltbprky-42" target="SsC4X1yO9NzYjltbprky-44" edge="1">
          <mxGeometry relative="1" as="geometry" />
        </mxCell>
        <mxCell id="SsC4X1yO9NzYjltbprky-42" value="Validate information" style="whiteSpace=wrap;html=1;rounded=1;" parent="1" vertex="1">
          <mxGeometry x="460" y="370" width="120" height="30" as="geometry" />
        </mxCell>
        <mxCell id="SsC4X1yO9NzYjltbprky-49" value="" style="edgeStyle=orthogonalEdgeStyle;rounded=0;orthogonalLoop=1;jettySize=auto;html=1;" parent="1" source="SsC4X1yO9NzYjltbprky-44" target="SsC4X1yO9NzYjltbprky-48" edge="1">
          <mxGeometry relative="1" as="geometry">
            <Array as="points">
              <mxPoint x="450" y="460" />
              <mxPoint x="450" y="460" />
            </Array>
          </mxGeometry>
        </mxCell>
        <mxCell id="SsC4X1yO9NzYjltbprky-50" value="no" style="edgeLabel;html=1;align=center;verticalAlign=middle;resizable=0;points=[];" parent="SsC4X1yO9NzYjltbprky-49" vertex="1" connectable="0">
          <mxGeometry x="-0.6667" relative="1" as="geometry">
            <mxPoint x="-1" y="-2" as="offset" />
          </mxGeometry>
        </mxCell>
        <mxCell id="SsC4X1yO9NzYjltbprky-55" value="" style="edgeStyle=orthogonalEdgeStyle;rounded=0;orthogonalLoop=1;jettySize=auto;html=1;" parent="1" source="SsC4X1yO9NzYjltbprky-44" target="SsC4X1yO9NzYjltbprky-54" edge="1">
          <mxGeometry relative="1" as="geometry" />
        </mxCell>
        <mxCell id="SsC4X1yO9NzYjltbprky-60" value="yes" style="edgeLabel;html=1;align=center;verticalAlign=middle;resizable=0;points=[];" parent="SsC4X1yO9NzYjltbprky-55" vertex="1" connectable="0">
          <mxGeometry x="-0.8632" y="-2" relative="1" as="geometry">
            <mxPoint x="7" y="-3" as="offset" />
          </mxGeometry>
        </mxCell>
        <mxCell id="SsC4X1yO9NzYjltbprky-44" value="Valid ?" style="rhombus;whiteSpace=wrap;html=1;rounded=1;" parent="1" vertex="1">
          <mxGeometry x="490" y="430" width="60" height="60" as="geometry" />
        </mxCell>
        <mxCell id="SsC4X1yO9NzYjltbprky-46" value="Valid ?" style="rhombus;whiteSpace=wrap;html=1;rounded=1;" parent="1" vertex="1">
          <mxGeometry x="489.27" y="180" width="60" height="60" as="geometry" />
        </mxCell>
        <mxCell id="SsC4X1yO9NzYjltbprky-67" style="edgeStyle=orthogonalEdgeStyle;rounded=0;orthogonalLoop=1;jettySize=auto;html=1;entryX=1;entryY=0.5;entryDx=0;entryDy=0;" parent="1" source="SsC4X1yO9NzYjltbprky-48" target="SsC4X1yO9NzYjltbprky-66" edge="1">
          <mxGeometry relative="1" as="geometry" />
        </mxCell>
        <mxCell id="SsC4X1yO9NzYjltbprky-48" value="show error message" style="whiteSpace=wrap;html=1;rounded=1;" parent="1" vertex="1">
          <mxGeometry x="260" y="440" width="120" height="40" as="geometry" />
        </mxCell>
        <mxCell id="SsC4X1yO9NzYjltbprky-57" value="" style="edgeStyle=orthogonalEdgeStyle;rounded=0;orthogonalLoop=1;jettySize=auto;html=1;exitX=0.5;exitY=1;exitDx=0;exitDy=0;" parent="1" source="SsC4X1yO9NzYjltbprky-54" target="SsC4X1yO9NzYjltbprky-56" edge="1">
          <mxGeometry relative="1" as="geometry">
            <mxPoint x="800" y="390" as="sourcePoint" />
            <Array as="points">
              <mxPoint x="770" y="530" />
            </Array>
          </mxGeometry>
        </mxCell>
        <mxCell id="SsC4X1yO9NzYjltbprky-54" value="save customer information" style="whiteSpace=wrap;html=1;rounded=1;" parent="1" vertex="1">
          <mxGeometry x="720" y="440" width="100" height="40" as="geometry" />
        </mxCell>
        <mxCell id="SsC4X1yO9NzYjltbprky-59" value="" style="edgeStyle=orthogonalEdgeStyle;rounded=0;orthogonalLoop=1;jettySize=auto;html=1;" parent="1" source="SsC4X1yO9NzYjltbprky-56" target="SsC4X1yO9NzYjltbprky-58" edge="1">
          <mxGeometry relative="1" as="geometry" />
        </mxCell>
        <mxCell id="SsC4X1yO9NzYjltbprky-61" value="fail" style="edgeLabel;html=1;align=center;verticalAlign=middle;resizable=0;points=[];" parent="SsC4X1yO9NzYjltbprky-59" vertex="1" connectable="0">
          <mxGeometry x="-0.6727" y="-1" relative="1" as="geometry">
            <mxPoint as="offset" />
          </mxGeometry>
        </mxCell>
        <mxCell id="SsC4X1yO9NzYjltbprky-64" value="" style="edgeStyle=orthogonalEdgeStyle;rounded=0;orthogonalLoop=1;jettySize=auto;html=1;exitX=0.5;exitY=1;exitDx=0;exitDy=0;" parent="1" source="SsC4X1yO9NzYjltbprky-56" target="SsC4X1yO9NzYjltbprky-63" edge="1">
          <mxGeometry relative="1" as="geometry">
            <mxPoint x="520" y="420" as="sourcePoint" />
            <Array as="points">
              <mxPoint x="520" y="580" />
            </Array>
          </mxGeometry>
        </mxCell>
        <mxCell id="SsC4X1yO9NzYjltbprky-65" value="success" style="edgeLabel;html=1;align=center;verticalAlign=middle;resizable=0;points=[];" parent="SsC4X1yO9NzYjltbprky-64" vertex="1" connectable="0">
          <mxGeometry x="-0.6718" relative="1" as="geometry">
            <mxPoint x="-34" y="-2" as="offset" />
          </mxGeometry>
        </mxCell>
        <mxCell id="SsC4X1yO9NzYjltbprky-56" value="saved ?" style="rhombus;whiteSpace=wrap;html=1;rounded=1;" parent="1" vertex="1">
          <mxGeometry x="490" y="500" width="60" height="60" as="geometry" />
        </mxCell>
        <mxCell id="SsC4X1yO9NzYjltbprky-58" value="show error message" style="whiteSpace=wrap;html=1;rounded=1;" parent="1" vertex="1">
          <mxGeometry x="260" y="510" width="120" height="40" as="geometry" />
        </mxCell>
        <mxCell id="SsC4X1yO9NzYjltbprky-74" style="edgeStyle=orthogonalEdgeStyle;rounded=0;orthogonalLoop=1;jettySize=auto;html=1;" parent="1" source="SsC4X1yO9NzYjltbprky-63" target="SsC4X1yO9NzYjltbprky-72" edge="1">
          <mxGeometry relative="1" as="geometry" />
        </mxCell>
        <mxCell id="SsC4X1yO9NzYjltbprky-63" value="Show&amp;nbsp; success message" style="whiteSpace=wrap;html=1;rounded=1;" parent="1" vertex="1">
          <mxGeometry x="260" y="560" width="120" height="40" as="geometry" />
        </mxCell>
        <mxCell id="SsC4X1yO9NzYjltbprky-66" value="" style="shape=sumEllipse;perimeter=ellipsePerimeter;whiteSpace=wrap;html=1;backgroundOutline=1;" parent="1" vertex="1">
          <mxGeometry x="190" y="445" width="30" height="30" as="geometry" />
        </mxCell>
        <mxCell id="SsC4X1yO9NzYjltbprky-68" style="edgeStyle=orthogonalEdgeStyle;rounded=0;orthogonalLoop=1;jettySize=auto;html=1;entryX=1;entryY=0.5;entryDx=0;entryDy=0;" parent="1" target="SsC4X1yO9NzYjltbprky-69" edge="1">
          <mxGeometry relative="1" as="geometry">
            <mxPoint x="260" y="530" as="sourcePoint" />
          </mxGeometry>
        </mxCell>
        <mxCell id="SsC4X1yO9NzYjltbprky-69" value="" style="shape=sumEllipse;perimeter=ellipsePerimeter;whiteSpace=wrap;html=1;backgroundOutline=1;" parent="1" vertex="1">
          <mxGeometry x="190" y="515" width="30" height="30" as="geometry" />
        </mxCell>
        <mxCell id="SsC4X1yO9NzYjltbprky-72" value="" style="ellipse;html=1;shape=endState;fillColor=strokeColor;" parent="1" vertex="1">
          <mxGeometry x="190" y="565" width="30" height="30" as="geometry" />
        </mxCell>
        <mxCell id="SsC4X1yO9NzYjltbprky-78" style="edgeStyle=orthogonalEdgeStyle;rounded=0;orthogonalLoop=1;jettySize=auto;html=1;entryX=0;entryY=0.5;entryDx=0;entryDy=0;" parent="1" edge="1">
          <mxGeometry relative="1" as="geometry">
            <mxPoint x="150" y="263" as="sourcePoint" />
            <mxPoint x="260" y="635" as="targetPoint" />
            <Array as="points">
              <mxPoint x="150" y="264" />
              <mxPoint x="150" y="635" />
            </Array>
          </mxGeometry>
        </mxCell>
        <mxCell id="SsC4X1yO9NzYjltbprky-79" value="" style="edgeStyle=orthogonalEdgeStyle;rounded=0;orthogonalLoop=1;jettySize=auto;html=1;" parent="1" source="SsC4X1yO9NzYjltbprky-80" target="SsC4X1yO9NzYjltbprky-82" edge="1">
          <mxGeometry relative="1" as="geometry" />
        </mxCell>
        <mxCell id="SsC4X1yO9NzYjltbprky-80" value="update information" style="whiteSpace=wrap;html=1;rounded=1;" parent="1" vertex="1">
          <mxGeometry x="260" y="670" width="120" height="30" as="geometry" />
        </mxCell>
        <mxCell id="SsC4X1yO9NzYjltbprky-81" value="" style="edgeStyle=orthogonalEdgeStyle;rounded=0;orthogonalLoop=1;jettySize=auto;html=1;" parent="1" source="SsC4X1yO9NzYjltbprky-82" target="SsC4X1yO9NzYjltbprky-87" edge="1">
          <mxGeometry relative="1" as="geometry" />
        </mxCell>
        <mxCell id="SsC4X1yO9NzYjltbprky-82" value="Validate information" style="whiteSpace=wrap;html=1;rounded=1;" parent="1" vertex="1">
          <mxGeometry x="460" y="670" width="120" height="30" as="geometry" />
        </mxCell>
        <mxCell id="SsC4X1yO9NzYjltbprky-83" value="" style="edgeStyle=orthogonalEdgeStyle;rounded=0;orthogonalLoop=1;jettySize=auto;html=1;" parent="1" source="SsC4X1yO9NzYjltbprky-87" target="SsC4X1yO9NzYjltbprky-89" edge="1">
          <mxGeometry relative="1" as="geometry">
            <Array as="points">
              <mxPoint x="450" y="750" />
              <mxPoint x="450" y="750" />
            </Array>
          </mxGeometry>
        </mxCell>
        <mxCell id="SsC4X1yO9NzYjltbprky-84" value="no" style="edgeLabel;html=1;align=center;verticalAlign=middle;resizable=0;points=[];" parent="SsC4X1yO9NzYjltbprky-83" vertex="1" connectable="0">
          <mxGeometry x="-0.6667" relative="1" as="geometry">
            <mxPoint x="-1" y="-2" as="offset" />
          </mxGeometry>
        </mxCell>
        <mxCell id="SsC4X1yO9NzYjltbprky-85" value="" style="edgeStyle=orthogonalEdgeStyle;rounded=0;orthogonalLoop=1;jettySize=auto;html=1;" parent="1" source="SsC4X1yO9NzYjltbprky-87" target="SsC4X1yO9NzYjltbprky-91" edge="1">
          <mxGeometry relative="1" as="geometry" />
        </mxCell>
        <mxCell id="SsC4X1yO9NzYjltbprky-86" value="yes" style="edgeLabel;html=1;align=center;verticalAlign=middle;resizable=0;points=[];" parent="SsC4X1yO9NzYjltbprky-85" vertex="1" connectable="0">
          <mxGeometry x="-0.8632" y="-2" relative="1" as="geometry">
            <mxPoint x="7" y="-3" as="offset" />
          </mxGeometry>
        </mxCell>
        <mxCell id="SsC4X1yO9NzYjltbprky-87" value="Valid ?" style="rhombus;whiteSpace=wrap;html=1;rounded=1;" parent="1" vertex="1">
          <mxGeometry x="490" y="720" width="60" height="60" as="geometry" />
        </mxCell>
        <mxCell id="SsC4X1yO9NzYjltbprky-88" style="edgeStyle=orthogonalEdgeStyle;rounded=0;orthogonalLoop=1;jettySize=auto;html=1;entryX=1;entryY=0.5;entryDx=0;entryDy=0;" parent="1" source="SsC4X1yO9NzYjltbprky-89" target="SsC4X1yO9NzYjltbprky-100" edge="1">
          <mxGeometry relative="1" as="geometry" />
        </mxCell>
        <mxCell id="SsC4X1yO9NzYjltbprky-89" value="show error message" style="whiteSpace=wrap;html=1;rounded=1;" parent="1" vertex="1">
          <mxGeometry x="260" y="730" width="120" height="40" as="geometry" />
        </mxCell>
        <mxCell id="SsC4X1yO9NzYjltbprky-90" value="" style="edgeStyle=orthogonalEdgeStyle;rounded=0;orthogonalLoop=1;jettySize=auto;html=1;exitX=0.5;exitY=1;exitDx=0;exitDy=0;entryX=0.846;entryY=0.5;entryDx=0;entryDy=0;entryPerimeter=0;" parent="1" source="SsC4X1yO9NzYjltbprky-91" target="SsC4X1yO9NzYjltbprky-96" edge="1">
          <mxGeometry relative="1" as="geometry">
            <mxPoint x="800" y="680" as="sourcePoint" />
            <Array as="points">
              <mxPoint x="770" y="810" />
            </Array>
          </mxGeometry>
        </mxCell>
        <mxCell id="SsC4X1yO9NzYjltbprky-91" value="update customer information" style="whiteSpace=wrap;html=1;rounded=1;" parent="1" vertex="1">
          <mxGeometry x="720" y="730" width="100" height="40" as="geometry" />
        </mxCell>
        <mxCell id="SsC4X1yO9NzYjltbprky-92" value="" style="edgeStyle=orthogonalEdgeStyle;rounded=0;orthogonalLoop=1;jettySize=auto;html=1;" parent="1" source="SsC4X1yO9NzYjltbprky-96" target="SsC4X1yO9NzYjltbprky-97" edge="1">
          <mxGeometry relative="1" as="geometry" />
        </mxCell>
        <mxCell id="SsC4X1yO9NzYjltbprky-93" value="fail" style="edgeLabel;html=1;align=center;verticalAlign=middle;resizable=0;points=[];" parent="SsC4X1yO9NzYjltbprky-92" vertex="1" connectable="0">
          <mxGeometry x="-0.6727" y="-1" relative="1" as="geometry">
            <mxPoint as="offset" />
          </mxGeometry>
        </mxCell>
        <mxCell id="SsC4X1yO9NzYjltbprky-94" value="" style="edgeStyle=orthogonalEdgeStyle;rounded=0;orthogonalLoop=1;jettySize=auto;html=1;exitX=0.5;exitY=1;exitDx=0;exitDy=0;" parent="1" source="SsC4X1yO9NzYjltbprky-96" target="SsC4X1yO9NzYjltbprky-99" edge="1">
          <mxGeometry relative="1" as="geometry">
            <mxPoint x="520" y="710" as="sourcePoint" />
            <Array as="points">
              <mxPoint x="520" y="870" />
            </Array>
          </mxGeometry>
        </mxCell>
        <mxCell id="SsC4X1yO9NzYjltbprky-95" value="success" style="edgeLabel;html=1;align=center;verticalAlign=middle;resizable=0;points=[];" parent="SsC4X1yO9NzYjltbprky-94" vertex="1" connectable="0">
          <mxGeometry x="-0.6718" relative="1" as="geometry">
            <mxPoint x="-34" as="offset" />
          </mxGeometry>
        </mxCell>
        <mxCell id="SsC4X1yO9NzYjltbprky-96" value="saved ?" style="rhombus;whiteSpace=wrap;html=1;rounded=1;" parent="1" vertex="1">
          <mxGeometry x="489.27" y="780" width="60" height="60" as="geometry" />
        </mxCell>
        <mxCell id="SsC4X1yO9NzYjltbprky-97" value="show error message" style="whiteSpace=wrap;html=1;rounded=1;" parent="1" vertex="1">
          <mxGeometry x="259.27" y="790" width="120" height="40" as="geometry" />
        </mxCell>
        <mxCell id="SsC4X1yO9NzYjltbprky-98" style="edgeStyle=orthogonalEdgeStyle;rounded=0;orthogonalLoop=1;jettySize=auto;html=1;" parent="1" source="SsC4X1yO9NzYjltbprky-99" target="SsC4X1yO9NzYjltbprky-103" edge="1">
          <mxGeometry relative="1" as="geometry" />
        </mxCell>
        <mxCell id="SsC4X1yO9NzYjltbprky-99" value="Show&amp;nbsp; success message" style="whiteSpace=wrap;html=1;rounded=1;" parent="1" vertex="1">
          <mxGeometry x="260" y="850" width="120" height="40" as="geometry" />
        </mxCell>
        <mxCell id="SsC4X1yO9NzYjltbprky-100" value="" style="shape=sumEllipse;perimeter=ellipsePerimeter;whiteSpace=wrap;html=1;backgroundOutline=1;" parent="1" vertex="1">
          <mxGeometry x="190" y="735" width="30" height="30" as="geometry" />
        </mxCell>
        <mxCell id="SsC4X1yO9NzYjltbprky-101" style="edgeStyle=orthogonalEdgeStyle;rounded=0;orthogonalLoop=1;jettySize=auto;html=1;entryX=1;entryY=0.5;entryDx=0;entryDy=0;exitX=0;exitY=0.5;exitDx=0;exitDy=0;" parent="1" source="SsC4X1yO9NzYjltbprky-97" target="SsC4X1yO9NzYjltbprky-102" edge="1">
          <mxGeometry relative="1" as="geometry">
            <mxPoint x="260.0000000000002" y="820" as="sourcePoint" />
          </mxGeometry>
        </mxCell>
        <mxCell id="SsC4X1yO9NzYjltbprky-102" value="" style="shape=sumEllipse;perimeter=ellipsePerimeter;whiteSpace=wrap;html=1;backgroundOutline=1;" parent="1" vertex="1">
          <mxGeometry x="189.27" y="795" width="30" height="30" as="geometry" />
        </mxCell>
        <mxCell id="SsC4X1yO9NzYjltbprky-103" value="" style="ellipse;html=1;shape=endState;fillColor=strokeColor;" parent="1" vertex="1">
          <mxGeometry x="190" y="855" width="30" height="30" as="geometry" />
        </mxCell>
        <mxCell id="SsC4X1yO9NzYjltbprky-105" style="edgeStyle=orthogonalEdgeStyle;rounded=0;orthogonalLoop=1;jettySize=auto;html=1;entryX=0.5;entryY=0;entryDx=0;entryDy=0;" parent="1" source="SsC4X1yO9NzYjltbprky-104" target="SsC4X1yO9NzYjltbprky-80" edge="1">
          <mxGeometry relative="1" as="geometry" />
        </mxCell>
        <mxCell id="SsC4X1yO9NzYjltbprky-104" value="Show edit customer button" style="rounded=1;whiteSpace=wrap;html=1;" parent="1" vertex="1">
          <mxGeometry x="260" y="620" width="120" height="30" as="geometry" />
        </mxCell>
        <mxCell id="SsC4X1yO9NzYjltbprky-109" style="edgeStyle=orthogonalEdgeStyle;rounded=0;orthogonalLoop=1;jettySize=auto;html=1;entryX=0.5;entryY=0;entryDx=0;entryDy=0;" parent="1" source="SsC4X1yO9NzYjltbprky-106" target="SsC4X1yO9NzYjltbprky-107" edge="1">
          <mxGeometry relative="1" as="geometry" />
        </mxCell>
        <mxCell id="SsC4X1yO9NzYjltbprky-106" value="Show view customer button" style="rounded=1;whiteSpace=wrap;html=1;" parent="1" vertex="1">
          <mxGeometry x="260" y="910" width="120" height="30" as="geometry" />
        </mxCell>
        <mxCell id="SsC4X1yO9NzYjltbprky-107" value="show customer detail" style="rounded=1;whiteSpace=wrap;html=1;" parent="1" vertex="1">
          <mxGeometry x="259.27" y="960" width="120" height="30" as="geometry" />
        </mxCell>
        <mxCell id="SsC4X1yO9NzYjltbprky-108" style="edgeStyle=orthogonalEdgeStyle;rounded=0;orthogonalLoop=1;jettySize=auto;html=1;exitX=0.5;exitY=0.656;exitDx=0;exitDy=0;exitPerimeter=0;" parent="1" source="SsC4X1yO9NzYjltbprky-9" edge="1">
          <mxGeometry relative="1" as="geometry">
            <mxPoint x="149.27" y="595" as="sourcePoint" />
            <mxPoint x="260" y="920" as="targetPoint" />
            <Array as="points">
              <mxPoint x="140" y="920" />
              <mxPoint x="259" y="920" />
            </Array>
          </mxGeometry>
        </mxCell>
        <mxCell id="SsC4X1yO9NzYjltbprky-113" value="" style="edgeStyle=orthogonalEdgeStyle;rounded=0;orthogonalLoop=1;jettySize=auto;html=1;" parent="1" source="SsC4X1yO9NzYjltbprky-114" target="SsC4X1yO9NzYjltbprky-116" edge="1">
          <mxGeometry relative="1" as="geometry" />
        </mxCell>
        <mxCell id="SsC4X1yO9NzYjltbprky-114" value="show delete button" style="whiteSpace=wrap;html=1;rounded=1;" parent="1" vertex="1">
          <mxGeometry x="257" y="1010" width="120" height="30" as="geometry" />
        </mxCell>
        <mxCell id="SsC4X1yO9NzYjltbprky-115" value="" style="edgeStyle=orthogonalEdgeStyle;rounded=0;orthogonalLoop=1;jettySize=auto;html=1;" parent="1" source="SsC4X1yO9NzYjltbprky-116" target="SsC4X1yO9NzYjltbprky-121" edge="1">
          <mxGeometry relative="1" as="geometry" />
        </mxCell>
        <mxCell id="SsC4X1yO9NzYjltbprky-116" value="confirmation" style="whiteSpace=wrap;html=1;rounded=1;" parent="1" vertex="1">
          <mxGeometry x="457" y="1010" width="120" height="30" as="geometry" />
        </mxCell>
        <mxCell id="SsC4X1yO9NzYjltbprky-117" value="" style="edgeStyle=orthogonalEdgeStyle;rounded=0;orthogonalLoop=1;jettySize=auto;html=1;" parent="1" source="SsC4X1yO9NzYjltbprky-121" edge="1">
          <mxGeometry relative="1" as="geometry">
            <Array as="points">
              <mxPoint x="447" y="1100" />
              <mxPoint x="447" y="1100" />
            </Array>
            <mxPoint x="377" y="1100" as="targetPoint" />
          </mxGeometry>
        </mxCell>
        <mxCell id="SsC4X1yO9NzYjltbprky-118" value="no" style="edgeLabel;html=1;align=center;verticalAlign=middle;resizable=0;points=[];" parent="SsC4X1yO9NzYjltbprky-117" vertex="1" connectable="0">
          <mxGeometry x="-0.6667" relative="1" as="geometry">
            <mxPoint x="-1" y="-2" as="offset" />
          </mxGeometry>
        </mxCell>
        <mxCell id="SsC4X1yO9NzYjltbprky-119" value="" style="edgeStyle=orthogonalEdgeStyle;rounded=0;orthogonalLoop=1;jettySize=auto;html=1;" parent="1" source="SsC4X1yO9NzYjltbprky-121" target="SsC4X1yO9NzYjltbprky-125" edge="1">
          <mxGeometry relative="1" as="geometry" />
        </mxCell>
        <mxCell id="SsC4X1yO9NzYjltbprky-120" value="yes" style="edgeLabel;html=1;align=center;verticalAlign=middle;resizable=0;points=[];" parent="SsC4X1yO9NzYjltbprky-119" vertex="1" connectable="0">
          <mxGeometry x="-0.8632" y="-2" relative="1" as="geometry">
            <mxPoint x="7" y="-3" as="offset" />
          </mxGeometry>
        </mxCell>
        <mxCell id="SsC4X1yO9NzYjltbprky-121" value="Valid ?" style="rhombus;whiteSpace=wrap;html=1;rounded=1;" parent="1" vertex="1">
          <mxGeometry x="487" y="1070" width="60" height="60" as="geometry" />
        </mxCell>
        <mxCell id="SsC4X1yO9NzYjltbprky-124" value="" style="edgeStyle=orthogonalEdgeStyle;rounded=0;orthogonalLoop=1;jettySize=auto;html=1;exitX=0.5;exitY=1;exitDx=0;exitDy=0;" parent="1" source="SsC4X1yO9NzYjltbprky-125" target="SsC4X1yO9NzYjltbprky-130" edge="1">
          <mxGeometry relative="1" as="geometry">
            <mxPoint x="797" y="1030" as="sourcePoint" />
            <Array as="points">
              <mxPoint x="767" y="1170" />
            </Array>
          </mxGeometry>
        </mxCell>
        <mxCell id="SsC4X1yO9NzYjltbprky-125" value="(soft) delete customer" style="whiteSpace=wrap;html=1;rounded=1;" parent="1" vertex="1">
          <mxGeometry x="717" y="1080" width="100" height="40" as="geometry" />
        </mxCell>
        <mxCell id="SsC4X1yO9NzYjltbprky-126" value="" style="edgeStyle=orthogonalEdgeStyle;rounded=0;orthogonalLoop=1;jettySize=auto;html=1;" parent="1" source="SsC4X1yO9NzYjltbprky-130" target="SsC4X1yO9NzYjltbprky-131" edge="1">
          <mxGeometry relative="1" as="geometry" />
        </mxCell>
        <mxCell id="SsC4X1yO9NzYjltbprky-127" value="fail" style="edgeLabel;html=1;align=center;verticalAlign=middle;resizable=0;points=[];" parent="SsC4X1yO9NzYjltbprky-126" vertex="1" connectable="0">
          <mxGeometry x="-0.6727" y="-1" relative="1" as="geometry">
            <mxPoint as="offset" />
          </mxGeometry>
        </mxCell>
        <mxCell id="SsC4X1yO9NzYjltbprky-128" value="" style="edgeStyle=orthogonalEdgeStyle;rounded=0;orthogonalLoop=1;jettySize=auto;html=1;exitX=0.5;exitY=1;exitDx=0;exitDy=0;" parent="1" source="SsC4X1yO9NzYjltbprky-130" target="SsC4X1yO9NzYjltbprky-133" edge="1">
          <mxGeometry relative="1" as="geometry">
            <mxPoint x="517" y="1060" as="sourcePoint" />
            <Array as="points">
              <mxPoint x="517" y="1220" />
            </Array>
          </mxGeometry>
        </mxCell>
        <mxCell id="SsC4X1yO9NzYjltbprky-129" value="success" style="edgeLabel;html=1;align=center;verticalAlign=middle;resizable=0;points=[];" parent="SsC4X1yO9NzYjltbprky-128" vertex="1" connectable="0">
          <mxGeometry x="-0.6718" relative="1" as="geometry">
            <mxPoint x="-34" y="-2" as="offset" />
          </mxGeometry>
        </mxCell>
        <mxCell id="SsC4X1yO9NzYjltbprky-130" value="saved ?" style="rhombus;whiteSpace=wrap;html=1;rounded=1;" parent="1" vertex="1">
          <mxGeometry x="487" y="1140" width="60" height="60" as="geometry" />
        </mxCell>
        <mxCell id="SsC4X1yO9NzYjltbprky-131" value="show error message" style="whiteSpace=wrap;html=1;rounded=1;" parent="1" vertex="1">
          <mxGeometry x="257" y="1150" width="120" height="40" as="geometry" />
        </mxCell>
        <mxCell id="SsC4X1yO9NzYjltbprky-132" style="edgeStyle=orthogonalEdgeStyle;rounded=0;orthogonalLoop=1;jettySize=auto;html=1;" parent="1" source="SsC4X1yO9NzYjltbprky-133" target="SsC4X1yO9NzYjltbprky-137" edge="1">
          <mxGeometry relative="1" as="geometry" />
        </mxCell>
        <mxCell id="SsC4X1yO9NzYjltbprky-133" value="Show&amp;nbsp; success message" style="whiteSpace=wrap;html=1;rounded=1;" parent="1" vertex="1">
          <mxGeometry x="257" y="1200" width="120" height="40" as="geometry" />
        </mxCell>
        <mxCell id="SsC4X1yO9NzYjltbprky-134" value="" style="shape=sumEllipse;perimeter=ellipsePerimeter;whiteSpace=wrap;html=1;backgroundOutline=1;" parent="1" vertex="1">
          <mxGeometry x="347" y="1085" width="30" height="30" as="geometry" />
        </mxCell>
        <mxCell id="SsC4X1yO9NzYjltbprky-135" style="edgeStyle=orthogonalEdgeStyle;rounded=0;orthogonalLoop=1;jettySize=auto;html=1;entryX=1;entryY=0.5;entryDx=0;entryDy=0;" parent="1" target="SsC4X1yO9NzYjltbprky-136" edge="1">
          <mxGeometry relative="1" as="geometry">
            <mxPoint x="257.0000000000002" y="1170" as="sourcePoint" />
          </mxGeometry>
        </mxCell>
        <mxCell id="SsC4X1yO9NzYjltbprky-136" value="" style="shape=sumEllipse;perimeter=ellipsePerimeter;whiteSpace=wrap;html=1;backgroundOutline=1;" parent="1" vertex="1">
          <mxGeometry x="187" y="1155" width="30" height="30" as="geometry" />
        </mxCell>
        <mxCell id="SsC4X1yO9NzYjltbprky-137" value="" style="ellipse;html=1;shape=endState;fillColor=strokeColor;" parent="1" vertex="1">
          <mxGeometry x="187" y="1205" width="30" height="30" as="geometry" />
        </mxCell>
        <mxCell id="SsC4X1yO9NzYjltbprky-138" style="edgeStyle=orthogonalEdgeStyle;rounded=0;orthogonalLoop=1;jettySize=auto;html=1;exitX=0.983;exitY=0.801;exitDx=0;exitDy=0;exitPerimeter=0;entryX=-0.008;entryY=0.359;entryDx=0;entryDy=0;entryPerimeter=0;" parent="1" source="SsC4X1yO9NzYjltbprky-9" target="SsC4X1yO9NzYjltbprky-114" edge="1">
          <mxGeometry relative="1" as="geometry">
            <mxPoint x="150.01999999999998" y="270.0000000000001" as="sourcePoint" />
            <mxPoint x="230" y="1030" as="targetPoint" />
            <Array as="points">
              <mxPoint x="130" y="262" />
              <mxPoint x="130" y="1021" />
            </Array>
          </mxGeometry>
        </mxCell>
      </root>
    </mxGraphModel>
  </diagram>
  <diagram id="erhycuf385ExVI75QQJE" name="Page-2">
    <mxGraphModel dx="868" dy="450" grid="1" gridSize="10" guides="1" tooltips="1" connect="1" arrows="1" fold="1" page="1" pageScale="1" pageWidth="850" pageHeight="1100" math="0" shadow="0">
      <root>
        <mxCell id="0" />
        <mxCell id="1" parent="0" />
        <mxCell id="NVEuJh3apIFZp09Wg0BA-3" value="" style="group" parent="1" vertex="1" connectable="0">
          <mxGeometry x="110" y="40" width="520" height="460" as="geometry" />
        </mxCell>
        <mxCell id="NVEuJh3apIFZp09Wg0BA-2" value="System" style="swimlane;whiteSpace=wrap;html=1;startSize=23;" parent="NVEuJh3apIFZp09Wg0BA-3" vertex="1">
          <mxGeometry x="260" width="260" height="459.99999999999994" as="geometry" />
        </mxCell>
        <mxCell id="NVEuJh3apIFZp09Wg0BA-11" style="edgeStyle=orthogonalEdgeStyle;rounded=0;orthogonalLoop=1;jettySize=auto;html=1;entryX=0.5;entryY=0;entryDx=0;entryDy=0;" parent="NVEuJh3apIFZp09Wg0BA-2" source="NVEuJh3apIFZp09Wg0BA-7" target="NVEuJh3apIFZp09Wg0BA-8" edge="1">
          <mxGeometry relative="1" as="geometry" />
        </mxCell>
        <mxCell id="NVEuJh3apIFZp09Wg0BA-7" value="verify username and passowrd" style="whiteSpace=wrap;html=1;rounded=1;" parent="NVEuJh3apIFZp09Wg0BA-2" vertex="1">
          <mxGeometry x="80" y="100" width="110" height="40" as="geometry" />
        </mxCell>
        <mxCell id="NVEuJh3apIFZp09Wg0BA-8" value="Authenticate?" style="rhombus;whiteSpace=wrap;html=1;rounded=1;" parent="NVEuJh3apIFZp09Wg0BA-2" vertex="1">
          <mxGeometry x="87.5" y="180" width="95" height="80" as="geometry" />
        </mxCell>
        <mxCell id="NVEuJh3apIFZp09Wg0BA-1" value="Client" style="swimlane;whiteSpace=wrap;html=1;" parent="NVEuJh3apIFZp09Wg0BA-3" vertex="1">
          <mxGeometry width="260" height="459.99999999999994" as="geometry" />
        </mxCell>
        <mxCell id="NVEuJh3apIFZp09Wg0BA-18" style="edgeStyle=orthogonalEdgeStyle;rounded=0;orthogonalLoop=1;jettySize=auto;html=1;entryX=0.5;entryY=0;entryDx=0;entryDy=0;" parent="NVEuJh3apIFZp09Wg0BA-1" source="NVEuJh3apIFZp09Wg0BA-4" target="NVEuJh3apIFZp09Wg0BA-5" edge="1">
          <mxGeometry relative="1" as="geometry" />
        </mxCell>
        <mxCell id="NVEuJh3apIFZp09Wg0BA-4" value="" style="ellipse;fillColor=strokeColor;" parent="NVEuJh3apIFZp09Wg0BA-1" vertex="1">
          <mxGeometry x="110" y="40" width="30" height="30" as="geometry" />
        </mxCell>
        <mxCell id="NVEuJh3apIFZp09Wg0BA-5" value="Login" style="rounded=1;whiteSpace=wrap;html=1;" parent="NVEuJh3apIFZp09Wg0BA-1" vertex="1">
          <mxGeometry x="75" y="100" width="100" height="40" as="geometry" />
        </mxCell>
        <mxCell id="NVEuJh3apIFZp09Wg0BA-17" style="edgeStyle=orthogonalEdgeStyle;rounded=0;orthogonalLoop=1;jettySize=auto;html=1;" parent="NVEuJh3apIFZp09Wg0BA-1" source="NVEuJh3apIFZp09Wg0BA-6" edge="1">
          <mxGeometry relative="1" as="geometry">
            <mxPoint x="130" y="140" as="targetPoint" />
            <Array as="points">
              <mxPoint x="130" y="220" />
            </Array>
          </mxGeometry>
        </mxCell>
        <mxCell id="NVEuJh3apIFZp09Wg0BA-6" value="Show error" style="rounded=1;whiteSpace=wrap;html=1;" parent="NVEuJh3apIFZp09Wg0BA-1" vertex="1">
          <mxGeometry x="80" y="200" width="100" height="40" as="geometry" />
        </mxCell>
        <mxCell id="NVEuJh3apIFZp09Wg0BA-25" style="edgeStyle=orthogonalEdgeStyle;rounded=0;orthogonalLoop=1;jettySize=auto;html=1;" parent="NVEuJh3apIFZp09Wg0BA-1" source="NVEuJh3apIFZp09Wg0BA-19" target="NVEuJh3apIFZp09Wg0BA-24" edge="1">
          <mxGeometry relative="1" as="geometry" />
        </mxCell>
        <mxCell id="NVEuJh3apIFZp09Wg0BA-19" value="Log into system" style="rounded=1;whiteSpace=wrap;html=1;" parent="NVEuJh3apIFZp09Wg0BA-1" vertex="1">
          <mxGeometry x="80" y="280" width="100" height="40" as="geometry" />
        </mxCell>
        <mxCell id="NVEuJh3apIFZp09Wg0BA-24" value="Show content based on user authorization" style="rounded=1;whiteSpace=wrap;html=1;" parent="NVEuJh3apIFZp09Wg0BA-1" vertex="1">
          <mxGeometry x="80" y="370" width="100" height="50" as="geometry" />
        </mxCell>
        <mxCell id="NVEuJh3apIFZp09Wg0BA-10" style="edgeStyle=orthogonalEdgeStyle;rounded=0;orthogonalLoop=1;jettySize=auto;html=1;entryX=0;entryY=0.5;entryDx=0;entryDy=0;" parent="NVEuJh3apIFZp09Wg0BA-3" source="NVEuJh3apIFZp09Wg0BA-5" target="NVEuJh3apIFZp09Wg0BA-7" edge="1">
          <mxGeometry relative="1" as="geometry">
            <mxPoint x="290" y="100" as="targetPoint" />
          </mxGeometry>
        </mxCell>
        <mxCell id="NVEuJh3apIFZp09Wg0BA-13" style="edgeStyle=orthogonalEdgeStyle;rounded=0;orthogonalLoop=1;jettySize=auto;html=1;entryX=1;entryY=0.5;entryDx=0;entryDy=0;" parent="NVEuJh3apIFZp09Wg0BA-3" source="NVEuJh3apIFZp09Wg0BA-8" target="NVEuJh3apIFZp09Wg0BA-6" edge="1">
          <mxGeometry relative="1" as="geometry">
            <mxPoint x="245" y="225" as="targetPoint" />
            <Array as="points">
              <mxPoint x="240" y="220" />
            </Array>
          </mxGeometry>
        </mxCell>
        <mxCell id="NVEuJh3apIFZp09Wg0BA-15" value="no" style="edgeLabel;html=1;align=center;verticalAlign=middle;resizable=0;points=[];" parent="NVEuJh3apIFZp09Wg0BA-13" vertex="1" connectable="0">
          <mxGeometry x="-0.5239" y="-2" relative="1" as="geometry">
            <mxPoint as="offset" />
          </mxGeometry>
        </mxCell>
        <mxCell id="NVEuJh3apIFZp09Wg0BA-20" style="edgeStyle=orthogonalEdgeStyle;rounded=0;orthogonalLoop=1;jettySize=auto;html=1;entryX=1;entryY=0.5;entryDx=0;entryDy=0;" parent="NVEuJh3apIFZp09Wg0BA-3" source="NVEuJh3apIFZp09Wg0BA-8" target="NVEuJh3apIFZp09Wg0BA-19" edge="1">
          <mxGeometry relative="1" as="geometry">
            <Array as="points">
              <mxPoint x="395" y="300" />
            </Array>
          </mxGeometry>
        </mxCell>
        <mxCell id="NVEuJh3apIFZp09Wg0BA-21" value="yes" style="edgeLabel;html=1;align=center;verticalAlign=middle;resizable=0;points=[];" parent="NVEuJh3apIFZp09Wg0BA-20" vertex="1" connectable="0">
          <mxGeometry x="-0.9213" y="-1" relative="1" as="geometry">
            <mxPoint as="offset" />
          </mxGeometry>
        </mxCell>
      </root>
    </mxGraphModel>
  </diagram>
  <diagram id="KJZ3P_zHyTH8Rs8TLYMc" name="Page-3">
    <mxGraphModel dx="868" dy="1550" grid="1" gridSize="10" guides="1" tooltips="1" connect="1" arrows="1" fold="1" page="1" pageScale="1" pageWidth="850" pageHeight="1100" math="0" shadow="0">
      <root>
        <mxCell id="0" />
        <mxCell id="1" parent="0" />
        <mxCell id="2QEqNj3lwUOKl2S9G0zZ-1" value="System" style="swimlane;whiteSpace=wrap;html=1;startSize=23;" parent="1" vertex="1">
          <mxGeometry x="400" y="-10" width="200" height="690" as="geometry" />
        </mxCell>
        <mxCell id="BWOsFPu1KWYbz_Jk_rTf-20" value="" style="endArrow=none;html=1;rounded=0;" parent="1" edge="1">
          <mxGeometry width="50" height="50" relative="1" as="geometry">
            <mxPoint x="400" y="370" as="sourcePoint" />
            <mxPoint x="400" y="40" as="targetPoint" />
          </mxGeometry>
        </mxCell>
        <mxCell id="BWOsFPu1KWYbz_Jk_rTf-26" style="edgeStyle=orthogonalEdgeStyle;rounded=0;orthogonalLoop=1;jettySize=auto;html=1;" parent="1" source="BWOsFPu1KWYbz_Jk_rTf-24" edge="1">
          <mxGeometry relative="1" as="geometry">
            <mxPoint x="295" y="105" as="targetPoint" />
          </mxGeometry>
        </mxCell>
        <mxCell id="BWOsFPu1KWYbz_Jk_rTf-24" value="" style="ellipse;fillColor=strokeColor;" parent="1" vertex="1">
          <mxGeometry x="280" y="40" width="30" height="30" as="geometry" />
        </mxCell>
        <mxCell id="BWOsFPu1KWYbz_Jk_rTf-32" style="edgeStyle=orthogonalEdgeStyle;rounded=0;orthogonalLoop=1;jettySize=auto;html=1;entryX=0.5;entryY=1;entryDx=0;entryDy=0;" parent="1" source="BWOsFPu1KWYbz_Jk_rTf-28" target="BWOsFPu1KWYbz_Jk_rTf-31" edge="1">
          <mxGeometry relative="1" as="geometry">
            <Array as="points">
              <mxPoint x="215" y="155" />
            </Array>
          </mxGeometry>
        </mxCell>
        <mxCell id="BWOsFPu1KWYbz_Jk_rTf-33" value="no" style="edgeLabel;html=1;align=center;verticalAlign=middle;resizable=0;points=[];" parent="BWOsFPu1KWYbz_Jk_rTf-32" vertex="1" connectable="0">
          <mxGeometry x="-0.5833" y="-1" relative="1" as="geometry">
            <mxPoint x="5" y="1" as="offset" />
          </mxGeometry>
        </mxCell>
        <mxCell id="BWOsFPu1KWYbz_Jk_rTf-35" style="edgeStyle=orthogonalEdgeStyle;rounded=0;orthogonalLoop=1;jettySize=auto;html=1;entryX=0.5;entryY=0;entryDx=0;entryDy=0;" parent="1" source="BWOsFPu1KWYbz_Jk_rTf-28" target="BWOsFPu1KWYbz_Jk_rTf-34" edge="1">
          <mxGeometry relative="1" as="geometry" />
        </mxCell>
        <mxCell id="BWOsFPu1KWYbz_Jk_rTf-38" value="yes" style="edgeLabel;html=1;align=center;verticalAlign=middle;resizable=0;points=[];" parent="BWOsFPu1KWYbz_Jk_rTf-35" vertex="1" connectable="0">
          <mxGeometry x="-0.7677" relative="1" as="geometry">
            <mxPoint as="offset" />
          </mxGeometry>
        </mxCell>
        <mxCell id="BWOsFPu1KWYbz_Jk_rTf-28" value="Authenticate ?" style="rhombus;" parent="1" vertex="1">
          <mxGeometry x="246.79" y="110" width="96.43" height="90" as="geometry" />
        </mxCell>
        <mxCell id="BWOsFPu1KWYbz_Jk_rTf-31" value="" style="shape=sumEllipse;perimeter=ellipsePerimeter;whiteSpace=wrap;html=1;backgroundOutline=1;" parent="1" vertex="1">
          <mxGeometry x="200" y="50" width="30" height="30" as="geometry" />
        </mxCell>
        <mxCell id="BWOsFPu1KWYbz_Jk_rTf-42" style="edgeStyle=orthogonalEdgeStyle;rounded=0;orthogonalLoop=1;jettySize=auto;html=1;entryX=1;entryY=0.5;entryDx=0;entryDy=0;" parent="1" source="BWOsFPu1KWYbz_Jk_rTf-34" target="BWOsFPu1KWYbz_Jk_rTf-24" edge="1">
          <mxGeometry relative="1" as="geometry">
            <Array as="points">
              <mxPoint x="360" y="270" />
              <mxPoint x="360" y="55" />
            </Array>
          </mxGeometry>
        </mxCell>
        <mxCell id="BWOsFPu1KWYbz_Jk_rTf-48" value="no" style="edgeLabel;html=1;align=center;verticalAlign=middle;resizable=0;points=[];" parent="BWOsFPu1KWYbz_Jk_rTf-42" vertex="1" connectable="0">
          <mxGeometry x="-0.9586" y="2" relative="1" as="geometry">
            <mxPoint x="5" y="2" as="offset" />
          </mxGeometry>
        </mxCell>
        <mxCell id="BWOsFPu1KWYbz_Jk_rTf-49" style="edgeStyle=orthogonalEdgeStyle;rounded=0;orthogonalLoop=1;jettySize=auto;html=1;entryX=0.5;entryY=0;entryDx=0;entryDy=0;" parent="1" source="BWOsFPu1KWYbz_Jk_rTf-34" target="BWOsFPu1KWYbz_Jk_rTf-45" edge="1">
          <mxGeometry relative="1" as="geometry">
            <Array as="points">
              <mxPoint x="295" y="320" />
              <mxPoint x="295" y="320" />
            </Array>
          </mxGeometry>
        </mxCell>
        <mxCell id="BWOsFPu1KWYbz_Jk_rTf-50" value="yes" style="edgeLabel;html=1;align=center;verticalAlign=middle;resizable=0;points=[];" parent="BWOsFPu1KWYbz_Jk_rTf-49" vertex="1" connectable="0">
          <mxGeometry x="-0.2122" relative="1" as="geometry">
            <mxPoint as="offset" />
          </mxGeometry>
        </mxCell>
        <mxCell id="BWOsFPu1KWYbz_Jk_rTf-34" value="Authorize ?" style="rhombus;whiteSpace=wrap;html=1;" parent="1" vertex="1">
          <mxGeometry x="255" y="230" width="80" height="80" as="geometry" />
        </mxCell>
        <mxCell id="BWOsFPu1KWYbz_Jk_rTf-39" value="You are here" style="text;html=1;strokeColor=none;fillColor=none;align=center;verticalAlign=middle;whiteSpace=wrap;rounded=0;" parent="1" vertex="1">
          <mxGeometry x="238.39999999999998" y="10" width="113.21" height="30" as="geometry" />
        </mxCell>
        <mxCell id="BWOsFPu1KWYbz_Jk_rTf-47" value="" style="edgeStyle=orthogonalEdgeStyle;rounded=0;orthogonalLoop=1;jettySize=auto;html=1;" parent="1" source="BWOsFPu1KWYbz_Jk_rTf-45" target="BWOsFPu1KWYbz_Jk_rTf-46" edge="1">
          <mxGeometry relative="1" as="geometry" />
        </mxCell>
        <mxCell id="BWOsFPu1KWYbz_Jk_rTf-45" value="Add customer" style="rounded=1;whiteSpace=wrap;html=1;" parent="1" vertex="1">
          <mxGeometry x="240.02" y="342" width="109.98" height="40" as="geometry" />
        </mxCell>
        <mxCell id="BWOsFPu1KWYbz_Jk_rTf-52" value="" style="edgeStyle=orthogonalEdgeStyle;rounded=0;orthogonalLoop=1;jettySize=auto;html=1;" parent="1" source="BWOsFPu1KWYbz_Jk_rTf-46" target="BWOsFPu1KWYbz_Jk_rTf-51" edge="1">
          <mxGeometry relative="1" as="geometry" />
        </mxCell>
        <mxCell id="BWOsFPu1KWYbz_Jk_rTf-46" value="Fill required information" style="whiteSpace=wrap;html=1;rounded=1;" parent="1" vertex="1">
          <mxGeometry x="235.01" y="400" width="120" height="40" as="geometry" />
        </mxCell>
        <mxCell id="BWOsFPu1KWYbz_Jk_rTf-59" value="" style="edgeStyle=orthogonalEdgeStyle;rounded=0;orthogonalLoop=1;jettySize=auto;html=1;" parent="1" source="BWOsFPu1KWYbz_Jk_rTf-51" target="BWOsFPu1KWYbz_Jk_rTf-58" edge="1">
          <mxGeometry relative="1" as="geometry" />
        </mxCell>
        <mxCell id="BWOsFPu1KWYbz_Jk_rTf-51" value="Validate customer information" style="whiteSpace=wrap;html=1;rounded=1;" parent="1" vertex="1">
          <mxGeometry x="435.01" y="400" width="120" height="40" as="geometry" />
        </mxCell>
        <mxCell id="BWOsFPu1KWYbz_Jk_rTf-61" value="" style="edgeStyle=orthogonalEdgeStyle;rounded=0;orthogonalLoop=1;jettySize=auto;html=1;" parent="1" source="BWOsFPu1KWYbz_Jk_rTf-58" target="BWOsFPu1KWYbz_Jk_rTf-60" edge="1">
          <mxGeometry relative="1" as="geometry" />
        </mxCell>
        <mxCell id="BWOsFPu1KWYbz_Jk_rTf-62" value="no" style="edgeLabel;html=1;align=center;verticalAlign=middle;resizable=0;points=[];" parent="BWOsFPu1KWYbz_Jk_rTf-61" vertex="1" connectable="0">
          <mxGeometry x="-0.6752" relative="1" as="geometry">
            <mxPoint as="offset" />
          </mxGeometry>
        </mxCell>
        <mxCell id="BWOsFPu1KWYbz_Jk_rTf-64" value="" style="edgeStyle=orthogonalEdgeStyle;rounded=0;orthogonalLoop=1;jettySize=auto;html=1;" parent="1" source="BWOsFPu1KWYbz_Jk_rTf-58" target="BWOsFPu1KWYbz_Jk_rTf-63" edge="1">
          <mxGeometry relative="1" as="geometry" />
        </mxCell>
        <mxCell id="BWOsFPu1KWYbz_Jk_rTf-58" value="Valid ?" style="rhombus;whiteSpace=wrap;html=1;rounded=1;" parent="1" vertex="1">
          <mxGeometry x="465.01" y="470" width="60" height="60" as="geometry" />
        </mxCell>
        <mxCell id="BWOsFPu1KWYbz_Jk_rTf-60" value="Show error message" style="whiteSpace=wrap;html=1;rounded=1;" parent="1" vertex="1">
          <mxGeometry x="235" y="480" width="120" height="40" as="geometry" />
        </mxCell>
        <mxCell id="BWOsFPu1KWYbz_Jk_rTf-66" value="" style="edgeStyle=orthogonalEdgeStyle;rounded=0;orthogonalLoop=1;jettySize=auto;html=1;" parent="1" source="BWOsFPu1KWYbz_Jk_rTf-63" target="BWOsFPu1KWYbz_Jk_rTf-65" edge="1">
          <mxGeometry relative="1" as="geometry" />
        </mxCell>
        <mxCell id="BWOsFPu1KWYbz_Jk_rTf-63" value="save customer to database" style="whiteSpace=wrap;html=1;rounded=1;" parent="1" vertex="1">
          <mxGeometry x="435.01" y="560" width="120" height="60" as="geometry" />
        </mxCell>
        <mxCell id="BWOsFPu1KWYbz_Jk_rTf-68" style="edgeStyle=orthogonalEdgeStyle;rounded=0;orthogonalLoop=1;jettySize=auto;html=1;entryX=0.5;entryY=0;entryDx=0;entryDy=0;" parent="1" source="BWOsFPu1KWYbz_Jk_rTf-65" target="BWOsFPu1KWYbz_Jk_rTf-67" edge="1">
          <mxGeometry relative="1" as="geometry" />
        </mxCell>
        <mxCell id="BWOsFPu1KWYbz_Jk_rTf-65" value="Show success message" style="whiteSpace=wrap;html=1;rounded=1;" parent="1" vertex="1">
          <mxGeometry x="235.01" y="570" width="120" height="40" as="geometry" />
        </mxCell>
        <mxCell id="BWOsFPu1KWYbz_Jk_rTf-67" value="" style="ellipse;html=1;shape=endState;fillColor=strokeColor;" parent="1" vertex="1">
          <mxGeometry x="280" y="630" width="30" height="30" as="geometry" />
        </mxCell>
        <mxCell id="2QEqNj3lwUOKl2S9G0zZ-6" value="Cient" style="swimlane;whiteSpace=wrap;html=1;startSize=23;" parent="1" vertex="1">
          <mxGeometry x="190" y="-10" width="210" height="690" as="geometry" />
        </mxCell>
      </root>
    </mxGraphModel>
  </diagram>
  <diagram id="pjtFyuVPG-FM6xoCdkf4" name="Page-4">
    <mxGraphModel dx="868" dy="1550" grid="1" gridSize="10" guides="1" tooltips="1" connect="1" arrows="1" fold="1" page="1" pageScale="1" pageWidth="850" pageHeight="1100" math="0" shadow="0">
      <root>
        <mxCell id="0" />
        <mxCell id="1" parent="0" />
        <mxCell id="UUrufVuCOuP4Uvl-2XDU-1" value="System" style="swimlane;whiteSpace=wrap;html=1;startSize=23;" parent="1" vertex="1">
          <mxGeometry x="400" y="-10" width="200" height="690" as="geometry" />
        </mxCell>
        <mxCell id="UUrufVuCOuP4Uvl-2XDU-2" value="" style="endArrow=none;html=1;rounded=0;" parent="1" edge="1">
          <mxGeometry width="50" height="50" relative="1" as="geometry">
            <mxPoint x="400.0000000000002" y="370" as="sourcePoint" />
            <mxPoint x="400.0000000000002" y="40" as="targetPoint" />
          </mxGeometry>
        </mxCell>
        <mxCell id="UUrufVuCOuP4Uvl-2XDU-3" style="edgeStyle=orthogonalEdgeStyle;rounded=0;orthogonalLoop=1;jettySize=auto;html=1;" parent="1" source="UUrufVuCOuP4Uvl-2XDU-4" edge="1">
          <mxGeometry relative="1" as="geometry">
            <mxPoint x="295.0000000000002" y="105" as="targetPoint" />
          </mxGeometry>
        </mxCell>
        <mxCell id="UUrufVuCOuP4Uvl-2XDU-4" value="" style="ellipse;fillColor=strokeColor;" parent="1" vertex="1">
          <mxGeometry x="280" y="40" width="30" height="30" as="geometry" />
        </mxCell>
        <mxCell id="UUrufVuCOuP4Uvl-2XDU-5" style="edgeStyle=orthogonalEdgeStyle;rounded=0;orthogonalLoop=1;jettySize=auto;html=1;entryX=0.5;entryY=1;entryDx=0;entryDy=0;" parent="1" source="UUrufVuCOuP4Uvl-2XDU-9" target="UUrufVuCOuP4Uvl-2XDU-10" edge="1">
          <mxGeometry relative="1" as="geometry">
            <Array as="points">
              <mxPoint x="215" y="155" />
            </Array>
          </mxGeometry>
        </mxCell>
        <mxCell id="UUrufVuCOuP4Uvl-2XDU-6" value="no" style="edgeLabel;html=1;align=center;verticalAlign=middle;resizable=0;points=[];" parent="UUrufVuCOuP4Uvl-2XDU-5" vertex="1" connectable="0">
          <mxGeometry x="-0.5833" y="-1" relative="1" as="geometry">
            <mxPoint x="5" y="1" as="offset" />
          </mxGeometry>
        </mxCell>
        <mxCell id="UUrufVuCOuP4Uvl-2XDU-7" style="edgeStyle=orthogonalEdgeStyle;rounded=0;orthogonalLoop=1;jettySize=auto;html=1;entryX=0.5;entryY=0;entryDx=0;entryDy=0;" parent="1" source="UUrufVuCOuP4Uvl-2XDU-9" target="UUrufVuCOuP4Uvl-2XDU-15" edge="1">
          <mxGeometry relative="1" as="geometry" />
        </mxCell>
        <mxCell id="UUrufVuCOuP4Uvl-2XDU-8" value="yes" style="edgeLabel;html=1;align=center;verticalAlign=middle;resizable=0;points=[];" parent="UUrufVuCOuP4Uvl-2XDU-7" vertex="1" connectable="0">
          <mxGeometry x="-0.7677" relative="1" as="geometry">
            <mxPoint as="offset" />
          </mxGeometry>
        </mxCell>
        <mxCell id="UUrufVuCOuP4Uvl-2XDU-9" value="Authenticate ?" style="rhombus;" parent="1" vertex="1">
          <mxGeometry x="246.79" y="110" width="96.43" height="90" as="geometry" />
        </mxCell>
        <mxCell id="UUrufVuCOuP4Uvl-2XDU-10" value="" style="shape=sumEllipse;perimeter=ellipsePerimeter;whiteSpace=wrap;html=1;backgroundOutline=1;" parent="1" vertex="1">
          <mxGeometry x="200" y="50" width="30" height="30" as="geometry" />
        </mxCell>
        <mxCell id="UUrufVuCOuP4Uvl-2XDU-11" style="edgeStyle=orthogonalEdgeStyle;rounded=0;orthogonalLoop=1;jettySize=auto;html=1;entryX=1;entryY=0.5;entryDx=0;entryDy=0;" parent="1" source="UUrufVuCOuP4Uvl-2XDU-15" target="UUrufVuCOuP4Uvl-2XDU-4" edge="1">
          <mxGeometry relative="1" as="geometry">
            <Array as="points">
              <mxPoint x="360" y="270" />
              <mxPoint x="360" y="55" />
            </Array>
          </mxGeometry>
        </mxCell>
        <mxCell id="UUrufVuCOuP4Uvl-2XDU-12" value="no" style="edgeLabel;html=1;align=center;verticalAlign=middle;resizable=0;points=[];" parent="UUrufVuCOuP4Uvl-2XDU-11" vertex="1" connectable="0">
          <mxGeometry x="-0.9586" y="2" relative="1" as="geometry">
            <mxPoint x="5" y="2" as="offset" />
          </mxGeometry>
        </mxCell>
        <mxCell id="UUrufVuCOuP4Uvl-2XDU-13" style="edgeStyle=orthogonalEdgeStyle;rounded=0;orthogonalLoop=1;jettySize=auto;html=1;entryX=0.5;entryY=0;entryDx=0;entryDy=0;" parent="1" source="UUrufVuCOuP4Uvl-2XDU-15" target="UUrufVuCOuP4Uvl-2XDU-18" edge="1">
          <mxGeometry relative="1" as="geometry">
            <Array as="points">
              <mxPoint x="295" y="320" />
              <mxPoint x="295" y="320" />
            </Array>
          </mxGeometry>
        </mxCell>
        <mxCell id="UUrufVuCOuP4Uvl-2XDU-14" value="yes" style="edgeLabel;html=1;align=center;verticalAlign=middle;resizable=0;points=[];" parent="UUrufVuCOuP4Uvl-2XDU-13" vertex="1" connectable="0">
          <mxGeometry x="-0.2122" relative="1" as="geometry">
            <mxPoint as="offset" />
          </mxGeometry>
        </mxCell>
        <mxCell id="UUrufVuCOuP4Uvl-2XDU-15" value="Authorize ?" style="rhombus;whiteSpace=wrap;html=1;" parent="1" vertex="1">
          <mxGeometry x="255" y="230" width="80" height="80" as="geometry" />
        </mxCell>
        <mxCell id="UUrufVuCOuP4Uvl-2XDU-16" value="You are here" style="text;html=1;strokeColor=none;fillColor=none;align=center;verticalAlign=middle;whiteSpace=wrap;rounded=0;" parent="1" vertex="1">
          <mxGeometry x="238.39999999999998" y="10" width="113.21" height="30" as="geometry" />
        </mxCell>
        <mxCell id="UUrufVuCOuP4Uvl-2XDU-17" value="" style="edgeStyle=orthogonalEdgeStyle;rounded=0;orthogonalLoop=1;jettySize=auto;html=1;" parent="1" source="UUrufVuCOuP4Uvl-2XDU-18" target="UUrufVuCOuP4Uvl-2XDU-20" edge="1">
          <mxGeometry relative="1" as="geometry" />
        </mxCell>
        <mxCell id="UUrufVuCOuP4Uvl-2XDU-18" value="Edit customer" style="rounded=1;whiteSpace=wrap;html=1;" parent="1" vertex="1">
          <mxGeometry x="240.02" y="342" width="109.98" height="40" as="geometry" />
        </mxCell>
        <mxCell id="UUrufVuCOuP4Uvl-2XDU-19" value="" style="edgeStyle=orthogonalEdgeStyle;rounded=0;orthogonalLoop=1;jettySize=auto;html=1;" parent="1" source="UUrufVuCOuP4Uvl-2XDU-20" target="UUrufVuCOuP4Uvl-2XDU-22" edge="1">
          <mxGeometry relative="1" as="geometry" />
        </mxCell>
        <mxCell id="UUrufVuCOuP4Uvl-2XDU-20" value="Update required information" style="whiteSpace=wrap;html=1;rounded=1;" parent="1" vertex="1">
          <mxGeometry x="235.01" y="400" width="120" height="40" as="geometry" />
        </mxCell>
        <mxCell id="UUrufVuCOuP4Uvl-2XDU-21" value="" style="edgeStyle=orthogonalEdgeStyle;rounded=0;orthogonalLoop=1;jettySize=auto;html=1;" parent="1" source="UUrufVuCOuP4Uvl-2XDU-22" target="UUrufVuCOuP4Uvl-2XDU-26" edge="1">
          <mxGeometry relative="1" as="geometry" />
        </mxCell>
        <mxCell id="UUrufVuCOuP4Uvl-2XDU-22" value="Validate customer information" style="whiteSpace=wrap;html=1;rounded=1;" parent="1" vertex="1">
          <mxGeometry x="435.01" y="400" width="120" height="40" as="geometry" />
        </mxCell>
        <mxCell id="UUrufVuCOuP4Uvl-2XDU-23" value="" style="edgeStyle=orthogonalEdgeStyle;rounded=0;orthogonalLoop=1;jettySize=auto;html=1;" parent="1" source="UUrufVuCOuP4Uvl-2XDU-26" target="UUrufVuCOuP4Uvl-2XDU-27" edge="1">
          <mxGeometry relative="1" as="geometry" />
        </mxCell>
        <mxCell id="UUrufVuCOuP4Uvl-2XDU-24" value="no" style="edgeLabel;html=1;align=center;verticalAlign=middle;resizable=0;points=[];" parent="UUrufVuCOuP4Uvl-2XDU-23" vertex="1" connectable="0">
          <mxGeometry x="-0.6752" relative="1" as="geometry">
            <mxPoint as="offset" />
          </mxGeometry>
        </mxCell>
        <mxCell id="UUrufVuCOuP4Uvl-2XDU-25" value="" style="edgeStyle=orthogonalEdgeStyle;rounded=0;orthogonalLoop=1;jettySize=auto;html=1;" parent="1" source="UUrufVuCOuP4Uvl-2XDU-26" target="UUrufVuCOuP4Uvl-2XDU-29" edge="1">
          <mxGeometry relative="1" as="geometry" />
        </mxCell>
        <mxCell id="UUrufVuCOuP4Uvl-2XDU-26" value="Valid ?" style="rhombus;whiteSpace=wrap;html=1;rounded=1;" parent="1" vertex="1">
          <mxGeometry x="465.01" y="470" width="60" height="60" as="geometry" />
        </mxCell>
        <mxCell id="UUrufVuCOuP4Uvl-2XDU-27" value="Show error message" style="whiteSpace=wrap;html=1;rounded=1;" parent="1" vertex="1">
          <mxGeometry x="235" y="480" width="120" height="40" as="geometry" />
        </mxCell>
        <mxCell id="UUrufVuCOuP4Uvl-2XDU-28" value="" style="edgeStyle=orthogonalEdgeStyle;rounded=0;orthogonalLoop=1;jettySize=auto;html=1;" parent="1" source="UUrufVuCOuP4Uvl-2XDU-29" target="UUrufVuCOuP4Uvl-2XDU-31" edge="1">
          <mxGeometry relative="1" as="geometry" />
        </mxCell>
        <mxCell id="UUrufVuCOuP4Uvl-2XDU-29" value="update customer to database" style="whiteSpace=wrap;html=1;rounded=1;" parent="1" vertex="1">
          <mxGeometry x="435.01" y="560" width="120" height="60" as="geometry" />
        </mxCell>
        <mxCell id="UUrufVuCOuP4Uvl-2XDU-30" style="edgeStyle=orthogonalEdgeStyle;rounded=0;orthogonalLoop=1;jettySize=auto;html=1;entryX=0.5;entryY=0;entryDx=0;entryDy=0;" parent="1" source="UUrufVuCOuP4Uvl-2XDU-31" target="UUrufVuCOuP4Uvl-2XDU-32" edge="1">
          <mxGeometry relative="1" as="geometry" />
        </mxCell>
        <mxCell id="UUrufVuCOuP4Uvl-2XDU-31" value="Show success message" style="whiteSpace=wrap;html=1;rounded=1;" parent="1" vertex="1">
          <mxGeometry x="235.01" y="570" width="120" height="40" as="geometry" />
        </mxCell>
        <mxCell id="UUrufVuCOuP4Uvl-2XDU-32" value="" style="ellipse;html=1;shape=endState;fillColor=strokeColor;" parent="1" vertex="1">
          <mxGeometry x="280" y="630" width="30" height="30" as="geometry" />
        </mxCell>
        <mxCell id="UUrufVuCOuP4Uvl-2XDU-33" value="Cient" style="swimlane;whiteSpace=wrap;html=1;startSize=23;" parent="1" vertex="1">
          <mxGeometry x="190" y="-10" width="210" height="690" as="geometry" />
        </mxCell>
      </root>
    </mxGraphModel>
  </diagram>
  <diagram id="0JwHQrQejCrzjfzna9UE" name="Page-5">
    <mxGraphModel dx="868" dy="1550" grid="1" gridSize="10" guides="1" tooltips="1" connect="1" arrows="1" fold="1" page="1" pageScale="1" pageWidth="850" pageHeight="1100" math="0" shadow="0">
      <root>
        <mxCell id="0" />
        <mxCell id="1" parent="0" />
        <mxCell id="cyDJZX7GNm_qSkn4xgdd-1" value="System" style="swimlane;whiteSpace=wrap;html=1;startSize=23;" parent="1" vertex="1">
          <mxGeometry x="400" y="-10" width="200" height="690" as="geometry" />
        </mxCell>
        <mxCell id="cyDJZX7GNm_qSkn4xgdd-22" value="Check if customer can be deleted" style="whiteSpace=wrap;html=1;rounded=1;" parent="cyDJZX7GNm_qSkn4xgdd-1" vertex="1">
          <mxGeometry x="35.00999999999999" y="420" width="120" height="40" as="geometry" />
        </mxCell>
        <mxCell id="cyDJZX7GNm_qSkn4xgdd-2" value="" style="endArrow=none;html=1;rounded=0;" parent="1" edge="1">
          <mxGeometry width="50" height="50" relative="1" as="geometry">
            <mxPoint x="400.0000000000002" y="370" as="sourcePoint" />
            <mxPoint x="400.0000000000002" y="40" as="targetPoint" />
          </mxGeometry>
        </mxCell>
        <mxCell id="cyDJZX7GNm_qSkn4xgdd-3" style="edgeStyle=orthogonalEdgeStyle;rounded=0;orthogonalLoop=1;jettySize=auto;html=1;" parent="1" source="cyDJZX7GNm_qSkn4xgdd-4" edge="1">
          <mxGeometry relative="1" as="geometry">
            <mxPoint x="295.0000000000002" y="105" as="targetPoint" />
          </mxGeometry>
        </mxCell>
        <mxCell id="cyDJZX7GNm_qSkn4xgdd-4" value="" style="ellipse;fillColor=strokeColor;" parent="1" vertex="1">
          <mxGeometry x="280" y="40" width="30" height="30" as="geometry" />
        </mxCell>
        <mxCell id="cyDJZX7GNm_qSkn4xgdd-5" style="edgeStyle=orthogonalEdgeStyle;rounded=0;orthogonalLoop=1;jettySize=auto;html=1;entryX=0.5;entryY=1;entryDx=0;entryDy=0;" parent="1" source="cyDJZX7GNm_qSkn4xgdd-9" target="cyDJZX7GNm_qSkn4xgdd-10" edge="1">
          <mxGeometry relative="1" as="geometry">
            <Array as="points">
              <mxPoint x="215" y="155" />
            </Array>
          </mxGeometry>
        </mxCell>
        <mxCell id="cyDJZX7GNm_qSkn4xgdd-6" value="no" style="edgeLabel;html=1;align=center;verticalAlign=middle;resizable=0;points=[];" parent="cyDJZX7GNm_qSkn4xgdd-5" vertex="1" connectable="0">
          <mxGeometry x="-0.5833" y="-1" relative="1" as="geometry">
            <mxPoint x="5" y="1" as="offset" />
          </mxGeometry>
        </mxCell>
        <mxCell id="cyDJZX7GNm_qSkn4xgdd-7" style="edgeStyle=orthogonalEdgeStyle;rounded=0;orthogonalLoop=1;jettySize=auto;html=1;entryX=0.5;entryY=0;entryDx=0;entryDy=0;" parent="1" source="cyDJZX7GNm_qSkn4xgdd-9" target="cyDJZX7GNm_qSkn4xgdd-15" edge="1">
          <mxGeometry relative="1" as="geometry" />
        </mxCell>
        <mxCell id="cyDJZX7GNm_qSkn4xgdd-8" value="yes" style="edgeLabel;html=1;align=center;verticalAlign=middle;resizable=0;points=[];" parent="cyDJZX7GNm_qSkn4xgdd-7" vertex="1" connectable="0">
          <mxGeometry x="-0.7677" relative="1" as="geometry">
            <mxPoint as="offset" />
          </mxGeometry>
        </mxCell>
        <mxCell id="cyDJZX7GNm_qSkn4xgdd-9" value="Authenticate ?" style="rhombus;" parent="1" vertex="1">
          <mxGeometry x="246.79" y="110" width="96.43" height="90" as="geometry" />
        </mxCell>
        <mxCell id="cyDJZX7GNm_qSkn4xgdd-10" value="" style="shape=sumEllipse;perimeter=ellipsePerimeter;whiteSpace=wrap;html=1;backgroundOutline=1;" parent="1" vertex="1">
          <mxGeometry x="200" y="50" width="30" height="30" as="geometry" />
        </mxCell>
        <mxCell id="cyDJZX7GNm_qSkn4xgdd-11" style="edgeStyle=orthogonalEdgeStyle;rounded=0;orthogonalLoop=1;jettySize=auto;html=1;entryX=1;entryY=0.5;entryDx=0;entryDy=0;" parent="1" source="cyDJZX7GNm_qSkn4xgdd-15" target="cyDJZX7GNm_qSkn4xgdd-4" edge="1">
          <mxGeometry relative="1" as="geometry">
            <Array as="points">
              <mxPoint x="360" y="270" />
              <mxPoint x="360" y="55" />
            </Array>
          </mxGeometry>
        </mxCell>
        <mxCell id="cyDJZX7GNm_qSkn4xgdd-12" value="no" style="edgeLabel;html=1;align=center;verticalAlign=middle;resizable=0;points=[];" parent="cyDJZX7GNm_qSkn4xgdd-11" vertex="1" connectable="0">
          <mxGeometry x="-0.9586" y="2" relative="1" as="geometry">
            <mxPoint x="5" y="2" as="offset" />
          </mxGeometry>
        </mxCell>
        <mxCell id="cyDJZX7GNm_qSkn4xgdd-13" style="edgeStyle=orthogonalEdgeStyle;rounded=0;orthogonalLoop=1;jettySize=auto;html=1;entryX=0.5;entryY=0;entryDx=0;entryDy=0;" parent="1" source="cyDJZX7GNm_qSkn4xgdd-15" target="cyDJZX7GNm_qSkn4xgdd-18" edge="1">
          <mxGeometry relative="1" as="geometry">
            <Array as="points">
              <mxPoint x="295" y="320" />
              <mxPoint x="295" y="320" />
            </Array>
          </mxGeometry>
        </mxCell>
        <mxCell id="cyDJZX7GNm_qSkn4xgdd-14" value="yes" style="edgeLabel;html=1;align=center;verticalAlign=middle;resizable=0;points=[];" parent="cyDJZX7GNm_qSkn4xgdd-13" vertex="1" connectable="0">
          <mxGeometry x="-0.2122" relative="1" as="geometry">
            <mxPoint as="offset" />
          </mxGeometry>
        </mxCell>
        <mxCell id="cyDJZX7GNm_qSkn4xgdd-15" value="Authorize ?" style="rhombus;whiteSpace=wrap;html=1;" parent="1" vertex="1">
          <mxGeometry x="255" y="230" width="80" height="80" as="geometry" />
        </mxCell>
        <mxCell id="cyDJZX7GNm_qSkn4xgdd-16" value="You are here" style="text;html=1;strokeColor=none;fillColor=none;align=center;verticalAlign=middle;whiteSpace=wrap;rounded=0;" parent="1" vertex="1">
          <mxGeometry x="238.39999999999998" y="10" width="113.21" height="30" as="geometry" />
        </mxCell>
        <mxCell id="cyDJZX7GNm_qSkn4xgdd-17" value="" style="edgeStyle=orthogonalEdgeStyle;rounded=0;orthogonalLoop=1;jettySize=auto;html=1;" parent="1" source="cyDJZX7GNm_qSkn4xgdd-18" edge="1">
          <mxGeometry relative="1" as="geometry">
            <mxPoint x="294.969696969697" y="400" as="targetPoint" />
          </mxGeometry>
        </mxCell>
        <mxCell id="cyDJZX7GNm_qSkn4xgdd-18" value="Delete customer" style="rounded=1;whiteSpace=wrap;html=1;" parent="1" vertex="1">
          <mxGeometry x="240.02" y="342" width="109.98" height="40" as="geometry" />
        </mxCell>
        <mxCell id="cyDJZX7GNm_qSkn4xgdd-19" value="" style="edgeStyle=orthogonalEdgeStyle;rounded=0;orthogonalLoop=1;jettySize=auto;html=1;exitX=0.956;exitY=0.505;exitDx=0;exitDy=0;exitPerimeter=0;" parent="1" source="cyDJZX7GNm_qSkn4xgdd-34" target="cyDJZX7GNm_qSkn4xgdd-22" edge="1">
          <mxGeometry relative="1" as="geometry">
            <mxPoint x="355.01" y="420" as="sourcePoint" />
            <Array as="points">
              <mxPoint x="327" y="429" />
            </Array>
          </mxGeometry>
        </mxCell>
        <mxCell id="cyDJZX7GNm_qSkn4xgdd-35" value="yes" style="edgeLabel;html=1;align=center;verticalAlign=middle;resizable=0;points=[];" parent="cyDJZX7GNm_qSkn4xgdd-19" vertex="1" connectable="0">
          <mxGeometry x="-0.7711" y="1" relative="1" as="geometry">
            <mxPoint as="offset" />
          </mxGeometry>
        </mxCell>
        <mxCell id="cyDJZX7GNm_qSkn4xgdd-21" value="" style="edgeStyle=orthogonalEdgeStyle;rounded=0;orthogonalLoop=1;jettySize=auto;html=1;" parent="1" source="cyDJZX7GNm_qSkn4xgdd-22" target="cyDJZX7GNm_qSkn4xgdd-26" edge="1">
          <mxGeometry relative="1" as="geometry" />
        </mxCell>
        <mxCell id="cyDJZX7GNm_qSkn4xgdd-23" value="" style="edgeStyle=orthogonalEdgeStyle;rounded=0;orthogonalLoop=1;jettySize=auto;html=1;" parent="1" source="cyDJZX7GNm_qSkn4xgdd-26" target="cyDJZX7GNm_qSkn4xgdd-27" edge="1">
          <mxGeometry relative="1" as="geometry" />
        </mxCell>
        <mxCell id="cyDJZX7GNm_qSkn4xgdd-24" value="no" style="edgeLabel;html=1;align=center;verticalAlign=middle;resizable=0;points=[];" parent="cyDJZX7GNm_qSkn4xgdd-23" vertex="1" connectable="0">
          <mxGeometry x="-0.6752" relative="1" as="geometry">
            <mxPoint as="offset" />
          </mxGeometry>
        </mxCell>
        <mxCell id="cyDJZX7GNm_qSkn4xgdd-25" value="" style="edgeStyle=orthogonalEdgeStyle;rounded=0;orthogonalLoop=1;jettySize=auto;html=1;" parent="1" source="cyDJZX7GNm_qSkn4xgdd-26" target="cyDJZX7GNm_qSkn4xgdd-29" edge="1">
          <mxGeometry relative="1" as="geometry" />
        </mxCell>
        <mxCell id="cyDJZX7GNm_qSkn4xgdd-39" value="yes" style="edgeLabel;html=1;align=center;verticalAlign=middle;resizable=0;points=[];" parent="cyDJZX7GNm_qSkn4xgdd-25" vertex="1" connectable="0">
          <mxGeometry x="-0.7733" y="2" relative="1" as="geometry">
            <mxPoint as="offset" />
          </mxGeometry>
        </mxCell>
        <mxCell id="cyDJZX7GNm_qSkn4xgdd-26" value="Valid ?" style="rhombus;whiteSpace=wrap;html=1;rounded=1;" parent="1" vertex="1">
          <mxGeometry x="465.01" y="470" width="60" height="60" as="geometry" />
        </mxCell>
        <mxCell id="cyDJZX7GNm_qSkn4xgdd-27" value="Show error message" style="whiteSpace=wrap;html=1;rounded=1;" parent="1" vertex="1">
          <mxGeometry x="235" y="480" width="120" height="40" as="geometry" />
        </mxCell>
        <mxCell id="cyDJZX7GNm_qSkn4xgdd-28" value="" style="edgeStyle=orthogonalEdgeStyle;rounded=0;orthogonalLoop=1;jettySize=auto;html=1;" parent="1" source="cyDJZX7GNm_qSkn4xgdd-29" target="cyDJZX7GNm_qSkn4xgdd-31" edge="1">
          <mxGeometry relative="1" as="geometry" />
        </mxCell>
        <mxCell id="cyDJZX7GNm_qSkn4xgdd-29" value="(Soft) delete customer" style="whiteSpace=wrap;html=1;rounded=1;" parent="1" vertex="1">
          <mxGeometry x="435.01" y="560" width="120" height="60" as="geometry" />
        </mxCell>
        <mxCell id="cyDJZX7GNm_qSkn4xgdd-30" style="edgeStyle=orthogonalEdgeStyle;rounded=0;orthogonalLoop=1;jettySize=auto;html=1;entryX=0.5;entryY=0;entryDx=0;entryDy=0;" parent="1" source="cyDJZX7GNm_qSkn4xgdd-31" target="cyDJZX7GNm_qSkn4xgdd-32" edge="1">
          <mxGeometry relative="1" as="geometry" />
        </mxCell>
        <mxCell id="cyDJZX7GNm_qSkn4xgdd-31" value="Show success message" style="whiteSpace=wrap;html=1;rounded=1;" parent="1" vertex="1">
          <mxGeometry x="235.01" y="570" width="120" height="40" as="geometry" />
        </mxCell>
        <mxCell id="cyDJZX7GNm_qSkn4xgdd-32" value="" style="ellipse;html=1;shape=endState;fillColor=strokeColor;" parent="1" vertex="1">
          <mxGeometry x="280" y="630" width="30" height="30" as="geometry" />
        </mxCell>
        <mxCell id="cyDJZX7GNm_qSkn4xgdd-33" value="Cient" style="swimlane;whiteSpace=wrap;html=1;startSize=23;" parent="1" vertex="1">
          <mxGeometry x="190" y="-10" width="210" height="690" as="geometry" />
        </mxCell>
        <mxCell id="cyDJZX7GNm_qSkn4xgdd-37" style="edgeStyle=orthogonalEdgeStyle;rounded=0;orthogonalLoop=1;jettySize=auto;html=1;entryX=1;entryY=0.5;entryDx=0;entryDy=0;" parent="cyDJZX7GNm_qSkn4xgdd-33" source="cyDJZX7GNm_qSkn4xgdd-34" target="cyDJZX7GNm_qSkn4xgdd-36" edge="1">
          <mxGeometry relative="1" as="geometry">
            <mxPoint x="60" y="420" as="targetPoint" />
            <Array as="points">
              <mxPoint x="50" y="440" />
              <mxPoint x="50" y="440" />
            </Array>
          </mxGeometry>
        </mxCell>
        <mxCell id="cyDJZX7GNm_qSkn4xgdd-38" value="no" style="edgeLabel;html=1;align=center;verticalAlign=middle;resizable=0;points=[];" parent="cyDJZX7GNm_qSkn4xgdd-37" vertex="1" connectable="0">
          <mxGeometry x="-0.8657" y="-1" relative="1" as="geometry">
            <mxPoint x="-9" as="offset" />
          </mxGeometry>
        </mxCell>
        <mxCell id="cyDJZX7GNm_qSkn4xgdd-34" value="confirm ?" style="rhombus;whiteSpace=wrap;html=1;rounded=1;" parent="cyDJZX7GNm_qSkn4xgdd-33" vertex="1">
          <mxGeometry x="75" y="410" width="65" height="60" as="geometry" />
        </mxCell>
        <mxCell id="cyDJZX7GNm_qSkn4xgdd-36" value="" style="shape=sumEllipse;perimeter=ellipsePerimeter;whiteSpace=wrap;html=1;backgroundOutline=1;" parent="cyDJZX7GNm_qSkn4xgdd-33" vertex="1">
          <mxGeometry x="10" y="425" width="30" height="30" as="geometry" />
        </mxCell>
      </root>
    </mxGraphModel>
  </diagram>
  <diagram id="Iq2s7z_eHIPU-qknuWlc" name="Page-6">
    <mxGraphModel dx="868" dy="1550" grid="1" gridSize="10" guides="1" tooltips="1" connect="1" arrows="1" fold="1" page="1" pageScale="1" pageWidth="850" pageHeight="1100" math="0" shadow="0">
      <root>
        <mxCell id="0" />
        <mxCell id="1" parent="0" />
        <mxCell id="hcxprR97vLhx0GUwAxtq-1" value="System" style="swimlane;whiteSpace=wrap;html=1;startSize=23;" parent="1" vertex="1">
          <mxGeometry x="400" y="-10" width="200" height="840" as="geometry" />
        </mxCell>
        <mxCell id="hcxprR97vLhx0GUwAxtq-45" style="edgeStyle=orthogonalEdgeStyle;rounded=0;orthogonalLoop=1;jettySize=auto;html=1;" parent="hcxprR97vLhx0GUwAxtq-1" source="hcxprR97vLhx0GUwAxtq-36" target="hcxprR97vLhx0GUwAxtq-43" edge="1">
          <mxGeometry relative="1" as="geometry" />
        </mxCell>
        <mxCell id="hcxprR97vLhx0GUwAxtq-46" value="no" style="edgeLabel;html=1;align=center;verticalAlign=middle;resizable=0;points=[];" parent="hcxprR97vLhx0GUwAxtq-45" vertex="1" connectable="0">
          <mxGeometry x="-0.7882" y="1" relative="1" as="geometry">
            <mxPoint as="offset" />
          </mxGeometry>
        </mxCell>
        <mxCell id="hcxprR97vLhx0GUwAxtq-36" value="True ?" style="rhombus;whiteSpace=wrap;html=1;rounded=1;" parent="hcxprR97vLhx0GUwAxtq-1" vertex="1">
          <mxGeometry x="65.00999999999999" y="640" width="60" height="60" as="geometry" />
        </mxCell>
        <mxCell id="hcxprR97vLhx0GUwAxtq-43" value="Save card number and customer information to database" style="whiteSpace=wrap;html=1;rounded=1;" parent="hcxprR97vLhx0GUwAxtq-1" vertex="1">
          <mxGeometry x="35" y="730" width="120" height="70" as="geometry" />
        </mxCell>
        <mxCell id="hcxprR97vLhx0GUwAxtq-2" value="" style="endArrow=none;html=1;rounded=0;" parent="1" edge="1">
          <mxGeometry width="50" height="50" relative="1" as="geometry">
            <mxPoint x="400.0000000000002" y="370" as="sourcePoint" />
            <mxPoint x="400.0000000000002" y="40" as="targetPoint" />
          </mxGeometry>
        </mxCell>
        <mxCell id="hcxprR97vLhx0GUwAxtq-3" style="edgeStyle=orthogonalEdgeStyle;rounded=0;orthogonalLoop=1;jettySize=auto;html=1;" parent="1" source="hcxprR97vLhx0GUwAxtq-4" edge="1">
          <mxGeometry relative="1" as="geometry">
            <mxPoint x="295.0000000000002" y="105" as="targetPoint" />
          </mxGeometry>
        </mxCell>
        <mxCell id="hcxprR97vLhx0GUwAxtq-4" value="" style="ellipse;fillColor=strokeColor;" parent="1" vertex="1">
          <mxGeometry x="280" y="40" width="30" height="30" as="geometry" />
        </mxCell>
        <mxCell id="hcxprR97vLhx0GUwAxtq-5" style="edgeStyle=orthogonalEdgeStyle;rounded=0;orthogonalLoop=1;jettySize=auto;html=1;entryX=0.5;entryY=1;entryDx=0;entryDy=0;" parent="1" source="hcxprR97vLhx0GUwAxtq-9" target="hcxprR97vLhx0GUwAxtq-10" edge="1">
          <mxGeometry relative="1" as="geometry">
            <Array as="points">
              <mxPoint x="215" y="155" />
            </Array>
          </mxGeometry>
        </mxCell>
        <mxCell id="hcxprR97vLhx0GUwAxtq-6" value="no" style="edgeLabel;html=1;align=center;verticalAlign=middle;resizable=0;points=[];" parent="hcxprR97vLhx0GUwAxtq-5" vertex="1" connectable="0">
          <mxGeometry x="-0.5833" y="-1" relative="1" as="geometry">
            <mxPoint x="5" y="1" as="offset" />
          </mxGeometry>
        </mxCell>
        <mxCell id="hcxprR97vLhx0GUwAxtq-7" style="edgeStyle=orthogonalEdgeStyle;rounded=0;orthogonalLoop=1;jettySize=auto;html=1;entryX=0.5;entryY=0;entryDx=0;entryDy=0;" parent="1" source="hcxprR97vLhx0GUwAxtq-9" target="hcxprR97vLhx0GUwAxtq-15" edge="1">
          <mxGeometry relative="1" as="geometry" />
        </mxCell>
        <mxCell id="hcxprR97vLhx0GUwAxtq-8" value="yes" style="edgeLabel;html=1;align=center;verticalAlign=middle;resizable=0;points=[];" parent="hcxprR97vLhx0GUwAxtq-7" vertex="1" connectable="0">
          <mxGeometry x="-0.7677" relative="1" as="geometry">
            <mxPoint as="offset" />
          </mxGeometry>
        </mxCell>
        <mxCell id="hcxprR97vLhx0GUwAxtq-9" value="Authenticate ?" style="rhombus;" parent="1" vertex="1">
          <mxGeometry x="246.79" y="110" width="96.43" height="90" as="geometry" />
        </mxCell>
        <mxCell id="hcxprR97vLhx0GUwAxtq-10" value="" style="shape=sumEllipse;perimeter=ellipsePerimeter;whiteSpace=wrap;html=1;backgroundOutline=1;" parent="1" vertex="1">
          <mxGeometry x="200" y="50" width="30" height="30" as="geometry" />
        </mxCell>
        <mxCell id="hcxprR97vLhx0GUwAxtq-11" style="edgeStyle=orthogonalEdgeStyle;rounded=0;orthogonalLoop=1;jettySize=auto;html=1;entryX=1;entryY=0.5;entryDx=0;entryDy=0;" parent="1" source="hcxprR97vLhx0GUwAxtq-15" target="hcxprR97vLhx0GUwAxtq-4" edge="1">
          <mxGeometry relative="1" as="geometry">
            <Array as="points">
              <mxPoint x="360" y="270" />
              <mxPoint x="360" y="55" />
            </Array>
          </mxGeometry>
        </mxCell>
        <mxCell id="hcxprR97vLhx0GUwAxtq-12" value="no" style="edgeLabel;html=1;align=center;verticalAlign=middle;resizable=0;points=[];" parent="hcxprR97vLhx0GUwAxtq-11" vertex="1" connectable="0">
          <mxGeometry x="-0.9586" y="2" relative="1" as="geometry">
            <mxPoint x="5" y="2" as="offset" />
          </mxGeometry>
        </mxCell>
        <mxCell id="hcxprR97vLhx0GUwAxtq-13" style="edgeStyle=orthogonalEdgeStyle;rounded=0;orthogonalLoop=1;jettySize=auto;html=1;entryX=0.5;entryY=0;entryDx=0;entryDy=0;" parent="1" source="hcxprR97vLhx0GUwAxtq-15" edge="1">
          <mxGeometry relative="1" as="geometry">
            <Array as="points">
              <mxPoint x="295" y="320" />
              <mxPoint x="295" y="320" />
            </Array>
            <mxPoint x="295.01" y="342" as="targetPoint" />
          </mxGeometry>
        </mxCell>
        <mxCell id="hcxprR97vLhx0GUwAxtq-14" value="yes" style="edgeLabel;html=1;align=center;verticalAlign=middle;resizable=0;points=[];" parent="hcxprR97vLhx0GUwAxtq-13" vertex="1" connectable="0">
          <mxGeometry x="-0.2122" relative="1" as="geometry">
            <mxPoint as="offset" />
          </mxGeometry>
        </mxCell>
        <mxCell id="hcxprR97vLhx0GUwAxtq-15" value="Authorize ?" style="rhombus;whiteSpace=wrap;html=1;" parent="1" vertex="1">
          <mxGeometry x="255" y="230" width="80" height="80" as="geometry" />
        </mxCell>
        <mxCell id="hcxprR97vLhx0GUwAxtq-16" value="You are here" style="text;html=1;strokeColor=none;fillColor=none;align=center;verticalAlign=middle;whiteSpace=wrap;rounded=0;" parent="1" vertex="1">
          <mxGeometry x="238.39999999999998" y="10" width="113.21" height="30" as="geometry" />
        </mxCell>
        <mxCell id="hcxprR97vLhx0GUwAxtq-17" value="" style="edgeStyle=orthogonalEdgeStyle;rounded=0;orthogonalLoop=1;jettySize=auto;html=1;" parent="1" target="hcxprR97vLhx0GUwAxtq-20" edge="1">
          <mxGeometry relative="1" as="geometry">
            <mxPoint x="295" y="382" as="sourcePoint" />
          </mxGeometry>
        </mxCell>
        <mxCell id="hcxprR97vLhx0GUwAxtq-19" value="" style="edgeStyle=orthogonalEdgeStyle;rounded=0;orthogonalLoop=1;jettySize=auto;html=1;" parent="1" source="hcxprR97vLhx0GUwAxtq-20" target="hcxprR97vLhx0GUwAxtq-22" edge="1">
          <mxGeometry relative="1" as="geometry" />
        </mxCell>
        <mxCell id="hcxprR97vLhx0GUwAxtq-20" value="Provide required information&amp;nbsp;&amp;nbsp;" style="whiteSpace=wrap;html=1;rounded=1;" parent="1" vertex="1">
          <mxGeometry x="235.01" y="400" width="120" height="40" as="geometry" />
        </mxCell>
        <mxCell id="hcxprR97vLhx0GUwAxtq-21" value="" style="edgeStyle=orthogonalEdgeStyle;rounded=0;orthogonalLoop=1;jettySize=auto;html=1;" parent="1" source="hcxprR97vLhx0GUwAxtq-22" target="hcxprR97vLhx0GUwAxtq-26" edge="1">
          <mxGeometry relative="1" as="geometry" />
        </mxCell>
        <mxCell id="hcxprR97vLhx0GUwAxtq-22" value="Validate customer and card information" style="whiteSpace=wrap;html=1;rounded=1;" parent="1" vertex="1">
          <mxGeometry x="435.01" y="400" width="120" height="40" as="geometry" />
        </mxCell>
        <mxCell id="hcxprR97vLhx0GUwAxtq-23" value="" style="edgeStyle=orthogonalEdgeStyle;rounded=0;orthogonalLoop=1;jettySize=auto;html=1;" parent="1" source="hcxprR97vLhx0GUwAxtq-26" target="hcxprR97vLhx0GUwAxtq-27" edge="1">
          <mxGeometry relative="1" as="geometry" />
        </mxCell>
        <mxCell id="hcxprR97vLhx0GUwAxtq-24" value="no" style="edgeLabel;html=1;align=center;verticalAlign=middle;resizable=0;points=[];" parent="hcxprR97vLhx0GUwAxtq-23" vertex="1" connectable="0">
          <mxGeometry x="-0.6752" relative="1" as="geometry">
            <mxPoint as="offset" />
          </mxGeometry>
        </mxCell>
        <mxCell id="hcxprR97vLhx0GUwAxtq-25" value="" style="edgeStyle=orthogonalEdgeStyle;rounded=0;orthogonalLoop=1;jettySize=auto;html=1;exitX=0.5;exitY=0.952;exitDx=0;exitDy=0;exitPerimeter=0;" parent="1" source="hcxprR97vLhx0GUwAxtq-26" target="hcxprR97vLhx0GUwAxtq-29" edge="1">
          <mxGeometry relative="1" as="geometry" />
        </mxCell>
        <mxCell id="hcxprR97vLhx0GUwAxtq-35" value="yes" style="edgeLabel;html=1;align=center;verticalAlign=middle;resizable=0;points=[];" parent="hcxprR97vLhx0GUwAxtq-25" vertex="1" connectable="0">
          <mxGeometry x="-0.707" relative="1" as="geometry">
            <mxPoint as="offset" />
          </mxGeometry>
        </mxCell>
        <mxCell id="hcxprR97vLhx0GUwAxtq-26" value="Valid ?" style="rhombus;whiteSpace=wrap;html=1;rounded=1;" parent="1" vertex="1">
          <mxGeometry x="465.01" y="470" width="60" height="60" as="geometry" />
        </mxCell>
        <mxCell id="hcxprR97vLhx0GUwAxtq-27" value="Show error message" style="whiteSpace=wrap;html=1;rounded=1;" parent="1" vertex="1">
          <mxGeometry x="235" y="480" width="120" height="40" as="geometry" />
        </mxCell>
        <mxCell id="hcxprR97vLhx0GUwAxtq-40" style="edgeStyle=orthogonalEdgeStyle;rounded=0;orthogonalLoop=1;jettySize=auto;html=1;" parent="1" source="hcxprR97vLhx0GUwAxtq-29" target="hcxprR97vLhx0GUwAxtq-36" edge="1">
          <mxGeometry relative="1" as="geometry" />
        </mxCell>
        <mxCell id="hcxprR97vLhx0GUwAxtq-29" value="Check if customer has active more than one" style="whiteSpace=wrap;html=1;rounded=1;" parent="1" vertex="1">
          <mxGeometry x="435.01" y="560" width="120" height="50" as="geometry" />
        </mxCell>
        <mxCell id="hcxprR97vLhx0GUwAxtq-33" value="Cient" style="swimlane;whiteSpace=wrap;html=1;startSize=23;" parent="1" vertex="1">
          <mxGeometry x="190" y="-10" width="210" height="840" as="geometry" />
        </mxCell>
        <mxCell id="hcxprR97vLhx0GUwAxtq-34" value="Select customer&amp;nbsp;" style="whiteSpace=wrap;html=1;rounded=1;" parent="hcxprR97vLhx0GUwAxtq-33" vertex="1">
          <mxGeometry x="44.39999999999998" y="350" width="120" height="40" as="geometry" />
        </mxCell>
        <mxCell id="hcxprR97vLhx0GUwAxtq-37" value="Show error message" style="whiteSpace=wrap;html=1;rounded=1;" parent="hcxprR97vLhx0GUwAxtq-33" vertex="1">
          <mxGeometry x="44.39999999999999" y="650" width="120" height="40" as="geometry" />
        </mxCell>
        <mxCell id="hcxprR97vLhx0GUwAxtq-31" value="Show success message" style="whiteSpace=wrap;html=1;rounded=1;" parent="hcxprR97vLhx0GUwAxtq-33" vertex="1">
          <mxGeometry x="44.99999999999998" y="730" width="120" height="40" as="geometry" />
        </mxCell>
        <mxCell id="hcxprR97vLhx0GUwAxtq-32" value="" style="ellipse;html=1;shape=endState;fillColor=strokeColor;" parent="hcxprR97vLhx0GUwAxtq-33" vertex="1">
          <mxGeometry x="89.98999999999998" y="790" width="30" height="30" as="geometry" />
        </mxCell>
        <mxCell id="hcxprR97vLhx0GUwAxtq-30" style="edgeStyle=orthogonalEdgeStyle;rounded=0;orthogonalLoop=1;jettySize=auto;html=1;entryX=0.5;entryY=0;entryDx=0;entryDy=0;" parent="hcxprR97vLhx0GUwAxtq-33" source="hcxprR97vLhx0GUwAxtq-31" target="hcxprR97vLhx0GUwAxtq-32" edge="1">
          <mxGeometry relative="1" as="geometry" />
        </mxCell>
        <mxCell id="hcxprR97vLhx0GUwAxtq-39" style="edgeStyle=orthogonalEdgeStyle;rounded=0;orthogonalLoop=1;jettySize=auto;html=1;entryX=1;entryY=0.5;entryDx=0;entryDy=0;" parent="1" source="hcxprR97vLhx0GUwAxtq-36" target="hcxprR97vLhx0GUwAxtq-37" edge="1">
          <mxGeometry relative="1" as="geometry" />
        </mxCell>
        <mxCell id="hcxprR97vLhx0GUwAxtq-42" value="yes" style="edgeLabel;html=1;align=center;verticalAlign=middle;resizable=0;points=[];" parent="hcxprR97vLhx0GUwAxtq-39" vertex="1" connectable="0">
          <mxGeometry x="-0.7212" relative="1" as="geometry">
            <mxPoint as="offset" />
          </mxGeometry>
        </mxCell>
        <mxCell id="hcxprR97vLhx0GUwAxtq-47" style="edgeStyle=orthogonalEdgeStyle;rounded=0;orthogonalLoop=1;jettySize=auto;html=1;entryX=1;entryY=0.5;entryDx=0;entryDy=0;" parent="1" source="hcxprR97vLhx0GUwAxtq-43" target="hcxprR97vLhx0GUwAxtq-31" edge="1">
          <mxGeometry relative="1" as="geometry">
            <Array as="points">
              <mxPoint x="420" y="740" />
              <mxPoint x="420" y="740" />
            </Array>
          </mxGeometry>
        </mxCell>
      </root>
    </mxGraphModel>
  </diagram>
  <diagram id="Yw-fPeADGl6J4MBWPGOQ" name="Page-7">
    <mxGraphModel dx="868" dy="1550" grid="1" gridSize="10" guides="1" tooltips="1" connect="1" arrows="1" fold="1" page="1" pageScale="1" pageWidth="850" pageHeight="1100" math="0" shadow="0">
      <root>
        <mxCell id="0" />
        <mxCell id="1" parent="0" />
        <mxCell id="V3n964YRBhj48HKbIdLL-1" value="System" style="swimlane;whiteSpace=wrap;html=1;startSize=23;" parent="1" vertex="1">
          <mxGeometry x="400" y="-20" width="200" height="660" as="geometry" />
        </mxCell>
        <mxCell id="V3n964YRBhj48HKbIdLL-22" value="Fetch all customer information&amp;nbsp;" style="whiteSpace=wrap;html=1;rounded=1;" parent="V3n964YRBhj48HKbIdLL-1" vertex="1">
          <mxGeometry x="39.99999999999999" y="362" width="120" height="40" as="geometry" />
        </mxCell>
        <mxCell id="V3n964YRBhj48HKbIdLL-2" value="" style="endArrow=none;html=1;rounded=0;" parent="1" edge="1">
          <mxGeometry width="50" height="50" relative="1" as="geometry">
            <mxPoint x="400.0000000000002" y="370" as="sourcePoint" />
            <mxPoint x="400.0000000000002" y="40" as="targetPoint" />
          </mxGeometry>
        </mxCell>
        <mxCell id="V3n964YRBhj48HKbIdLL-3" style="edgeStyle=orthogonalEdgeStyle;rounded=0;orthogonalLoop=1;jettySize=auto;html=1;" parent="1" source="V3n964YRBhj48HKbIdLL-4" edge="1">
          <mxGeometry relative="1" as="geometry">
            <mxPoint x="295.0000000000002" y="105" as="targetPoint" />
          </mxGeometry>
        </mxCell>
        <mxCell id="V3n964YRBhj48HKbIdLL-4" value="" style="ellipse;fillColor=strokeColor;" parent="1" vertex="1">
          <mxGeometry x="280" y="40" width="30" height="30" as="geometry" />
        </mxCell>
        <mxCell id="V3n964YRBhj48HKbIdLL-5" style="edgeStyle=orthogonalEdgeStyle;rounded=0;orthogonalLoop=1;jettySize=auto;html=1;entryX=0.5;entryY=1;entryDx=0;entryDy=0;" parent="1" source="V3n964YRBhj48HKbIdLL-9" target="V3n964YRBhj48HKbIdLL-10" edge="1">
          <mxGeometry relative="1" as="geometry">
            <Array as="points">
              <mxPoint x="215" y="155" />
            </Array>
          </mxGeometry>
        </mxCell>
        <mxCell id="V3n964YRBhj48HKbIdLL-6" value="no" style="edgeLabel;html=1;align=center;verticalAlign=middle;resizable=0;points=[];" parent="V3n964YRBhj48HKbIdLL-5" vertex="1" connectable="0">
          <mxGeometry x="-0.5833" y="-1" relative="1" as="geometry">
            <mxPoint x="5" y="1" as="offset" />
          </mxGeometry>
        </mxCell>
        <mxCell id="V3n964YRBhj48HKbIdLL-7" style="edgeStyle=orthogonalEdgeStyle;rounded=0;orthogonalLoop=1;jettySize=auto;html=1;entryX=0.5;entryY=0;entryDx=0;entryDy=0;" parent="1" source="V3n964YRBhj48HKbIdLL-9" edge="1">
          <mxGeometry relative="1" as="geometry">
            <mxPoint x="295" y="230" as="targetPoint" />
          </mxGeometry>
        </mxCell>
        <mxCell id="V3n964YRBhj48HKbIdLL-8" value="yes" style="edgeLabel;html=1;align=center;verticalAlign=middle;resizable=0;points=[];" parent="V3n964YRBhj48HKbIdLL-7" vertex="1" connectable="0">
          <mxGeometry x="-0.7677" relative="1" as="geometry">
            <mxPoint as="offset" />
          </mxGeometry>
        </mxCell>
        <mxCell id="V3n964YRBhj48HKbIdLL-9" value="Authenticate ?" style="rhombus;" parent="1" vertex="1">
          <mxGeometry x="246.79" y="110" width="96.43" height="90" as="geometry" />
        </mxCell>
        <mxCell id="V3n964YRBhj48HKbIdLL-10" value="" style="shape=sumEllipse;perimeter=ellipsePerimeter;whiteSpace=wrap;html=1;backgroundOutline=1;" parent="1" vertex="1">
          <mxGeometry x="200" y="50" width="30" height="30" as="geometry" />
        </mxCell>
        <mxCell id="V3n964YRBhj48HKbIdLL-11" style="edgeStyle=orthogonalEdgeStyle;rounded=0;orthogonalLoop=1;jettySize=auto;html=1;entryX=1;entryY=0.5;entryDx=0;entryDy=0;" parent="1" target="V3n964YRBhj48HKbIdLL-4" edge="1">
          <mxGeometry relative="1" as="geometry">
            <Array as="points">
              <mxPoint x="360" y="270" />
              <mxPoint x="360" y="55" />
            </Array>
            <mxPoint x="335" y="270" as="sourcePoint" />
          </mxGeometry>
        </mxCell>
        <mxCell id="V3n964YRBhj48HKbIdLL-12" value="no" style="edgeLabel;html=1;align=center;verticalAlign=middle;resizable=0;points=[];" parent="V3n964YRBhj48HKbIdLL-11" vertex="1" connectable="0">
          <mxGeometry x="-0.9586" y="2" relative="1" as="geometry">
            <mxPoint x="5" y="2" as="offset" />
          </mxGeometry>
        </mxCell>
        <mxCell id="V3n964YRBhj48HKbIdLL-13" style="edgeStyle=orthogonalEdgeStyle;rounded=0;orthogonalLoop=1;jettySize=auto;html=1;entryX=0.5;entryY=0;entryDx=0;entryDy=0;" parent="1" target="V3n964YRBhj48HKbIdLL-18" edge="1">
          <mxGeometry relative="1" as="geometry">
            <Array as="points">
              <mxPoint x="295" y="320" />
              <mxPoint x="295" y="320" />
            </Array>
            <mxPoint x="295" y="310" as="sourcePoint" />
          </mxGeometry>
        </mxCell>
        <mxCell id="V3n964YRBhj48HKbIdLL-14" value="yes" style="edgeLabel;html=1;align=center;verticalAlign=middle;resizable=0;points=[];" parent="V3n964YRBhj48HKbIdLL-13" vertex="1" connectable="0">
          <mxGeometry x="-0.2122" relative="1" as="geometry">
            <mxPoint as="offset" />
          </mxGeometry>
        </mxCell>
        <mxCell id="V3n964YRBhj48HKbIdLL-16" value="You are here" style="text;html=1;strokeColor=none;fillColor=none;align=center;verticalAlign=middle;whiteSpace=wrap;rounded=0;" parent="1" vertex="1">
          <mxGeometry x="238.39999999999998" y="10" width="113.21" height="30" as="geometry" />
        </mxCell>
        <mxCell id="V3n964YRBhj48HKbIdLL-36" style="edgeStyle=orthogonalEdgeStyle;rounded=0;orthogonalLoop=1;jettySize=auto;html=1;entryX=0;entryY=0.5;entryDx=0;entryDy=0;" parent="1" source="V3n964YRBhj48HKbIdLL-18" target="V3n964YRBhj48HKbIdLL-22" edge="1">
          <mxGeometry relative="1" as="geometry">
            <mxPoint x="375" y="362" as="targetPoint" />
          </mxGeometry>
        </mxCell>
        <mxCell id="V3n964YRBhj48HKbIdLL-18" value="View&amp;nbsp; customer" style="rounded=1;whiteSpace=wrap;html=1;" parent="1" vertex="1">
          <mxGeometry x="240.02" y="342" width="109.98" height="40" as="geometry" />
        </mxCell>
        <mxCell id="V3n964YRBhj48HKbIdLL-33" value="Cient" style="swimlane;whiteSpace=wrap;html=1;startSize=23;" parent="1" vertex="1">
          <mxGeometry x="190" y="-20" width="210" height="660" as="geometry" />
        </mxCell>
        <mxCell id="V3n964YRBhj48HKbIdLL-20" value="Display customer information&amp;nbsp;" style="whiteSpace=wrap;html=1;rounded=1;" parent="V3n964YRBhj48HKbIdLL-33" vertex="1">
          <mxGeometry x="70" y="440" width="120" height="40" as="geometry" />
        </mxCell>
        <mxCell id="V3n964YRBhj48HKbIdLL-40" value="Display related top-up" style="whiteSpace=wrap;html=1;rounded=1;" parent="V3n964YRBhj48HKbIdLL-33" vertex="1">
          <mxGeometry x="70" y="490" width="120" height="40" as="geometry" />
        </mxCell>
        <mxCell id="V3n964YRBhj48HKbIdLL-43" style="edgeStyle=orthogonalEdgeStyle;rounded=0;orthogonalLoop=1;jettySize=auto;html=1;entryX=0.5;entryY=0;entryDx=0;entryDy=0;" parent="V3n964YRBhj48HKbIdLL-33" source="V3n964YRBhj48HKbIdLL-41" target="V3n964YRBhj48HKbIdLL-42" edge="1">
          <mxGeometry relative="1" as="geometry" />
        </mxCell>
        <mxCell id="V3n964YRBhj48HKbIdLL-41" value="Display related card number belong to customer" style="whiteSpace=wrap;html=1;rounded=1;" parent="V3n964YRBhj48HKbIdLL-33" vertex="1">
          <mxGeometry x="70" y="540" width="120" height="50" as="geometry" />
        </mxCell>
        <mxCell id="V3n964YRBhj48HKbIdLL-42" value="" style="ellipse;html=1;shape=endState;fillColor=strokeColor;" parent="V3n964YRBhj48HKbIdLL-33" vertex="1">
          <mxGeometry x="115" y="620" width="30" height="30" as="geometry" />
        </mxCell>
        <mxCell id="V3n964YRBhj48HKbIdLL-45" value="" style="html=1;points=[];perimeter=orthogonalPerimeter;fillColor=strokeColor;" parent="V3n964YRBhj48HKbIdLL-33" vertex="1">
          <mxGeometry x="20" y="440" width="5" height="150" as="geometry" />
        </mxCell>
        <mxCell id="V3n964YRBhj48HKbIdLL-49" value="" style="endArrow=classic;html=1;rounded=0;entryX=0;entryY=0.5;entryDx=0;entryDy=0;" parent="V3n964YRBhj48HKbIdLL-33" source="V3n964YRBhj48HKbIdLL-45" target="V3n964YRBhj48HKbIdLL-20" edge="1">
          <mxGeometry width="50" height="50" relative="1" as="geometry">
            <mxPoint x="110" y="540" as="sourcePoint" />
            <mxPoint x="160" y="490" as="targetPoint" />
          </mxGeometry>
        </mxCell>
        <mxCell id="V3n964YRBhj48HKbIdLL-50" value="" style="endArrow=classic;html=1;rounded=0;entryX=0;entryY=0.5;entryDx=0;entryDy=0;" parent="V3n964YRBhj48HKbIdLL-33" edge="1">
          <mxGeometry width="50" height="50" relative="1" as="geometry">
            <mxPoint x="25" y="509.71" as="sourcePoint" />
            <mxPoint x="70" y="509.71" as="targetPoint" />
          </mxGeometry>
        </mxCell>
        <mxCell id="V3n964YRBhj48HKbIdLL-51" value="" style="endArrow=classic;html=1;rounded=0;entryX=0;entryY=0.5;entryDx=0;entryDy=0;" parent="V3n964YRBhj48HKbIdLL-33" edge="1">
          <mxGeometry width="50" height="50" relative="1" as="geometry">
            <mxPoint x="25" y="564.71" as="sourcePoint" />
            <mxPoint x="70" y="564.71" as="targetPoint" />
          </mxGeometry>
        </mxCell>
        <mxCell id="V3n964YRBhj48HKbIdLL-34" value="Authorize ?" style="rhombus;whiteSpace=wrap;html=1;rounded=1;" parent="1" vertex="1">
          <mxGeometry x="255.79" y="230" width="80" height="80" as="geometry" />
        </mxCell>
        <mxCell id="V3n964YRBhj48HKbIdLL-52" style="edgeStyle=orthogonalEdgeStyle;rounded=0;orthogonalLoop=1;jettySize=auto;html=1;entryX=0.233;entryY=0.167;entryDx=0;entryDy=0;entryPerimeter=0;" parent="1" source="V3n964YRBhj48HKbIdLL-22" target="V3n964YRBhj48HKbIdLL-45" edge="1">
          <mxGeometry relative="1" as="geometry">
            <Array as="points">
              <mxPoint x="500" y="400" />
              <mxPoint x="200" y="400" />
              <mxPoint x="200" y="445" />
            </Array>
          </mxGeometry>
        </mxCell>
      </root>
    </mxGraphModel>
  </diagram>
  <diagram id="EhbiGV-jPPd8Fo213Y_3" name="Page-8">
    <mxGraphModel dx="868" dy="1550" grid="1" gridSize="10" guides="1" tooltips="1" connect="1" arrows="1" fold="1" page="1" pageScale="1" pageWidth="850" pageHeight="1100" math="0" shadow="0">
      <root>
        <mxCell id="0" />
        <mxCell id="1" parent="0" />
        <mxCell id="bx1OYULyR1LC7K4oZG2C-1" value="System" style="swimlane;whiteSpace=wrap;html=1;startSize=23;" parent="1" vertex="1">
          <mxGeometry x="400" y="-10" width="200" height="630" as="geometry" />
        </mxCell>
        <mxCell id="bx1OYULyR1LC7K4oZG2C-29" value="save card updated information to database" style="whiteSpace=wrap;html=1;rounded=1;" parent="bx1OYULyR1LC7K4oZG2C-1" vertex="1">
          <mxGeometry x="35" y="500" width="120" height="60" as="geometry" />
        </mxCell>
        <mxCell id="bx1OYULyR1LC7K4oZG2C-2" value="" style="endArrow=none;html=1;rounded=0;" parent="1" edge="1">
          <mxGeometry width="50" height="50" relative="1" as="geometry">
            <mxPoint x="400.0000000000002" y="370" as="sourcePoint" />
            <mxPoint x="400.0000000000002" y="40" as="targetPoint" />
          </mxGeometry>
        </mxCell>
        <mxCell id="bx1OYULyR1LC7K4oZG2C-3" style="edgeStyle=orthogonalEdgeStyle;rounded=0;orthogonalLoop=1;jettySize=auto;html=1;" parent="1" source="bx1OYULyR1LC7K4oZG2C-4" edge="1">
          <mxGeometry relative="1" as="geometry">
            <mxPoint x="295.0000000000002" y="105" as="targetPoint" />
          </mxGeometry>
        </mxCell>
        <mxCell id="bx1OYULyR1LC7K4oZG2C-4" value="" style="ellipse;fillColor=strokeColor;" parent="1" vertex="1">
          <mxGeometry x="280" y="40" width="30" height="30" as="geometry" />
        </mxCell>
        <mxCell id="bx1OYULyR1LC7K4oZG2C-5" style="edgeStyle=orthogonalEdgeStyle;rounded=0;orthogonalLoop=1;jettySize=auto;html=1;entryX=0.5;entryY=1;entryDx=0;entryDy=0;" parent="1" source="bx1OYULyR1LC7K4oZG2C-9" target="bx1OYULyR1LC7K4oZG2C-10" edge="1">
          <mxGeometry relative="1" as="geometry">
            <Array as="points">
              <mxPoint x="215" y="155" />
            </Array>
          </mxGeometry>
        </mxCell>
        <mxCell id="bx1OYULyR1LC7K4oZG2C-6" value="no" style="edgeLabel;html=1;align=center;verticalAlign=middle;resizable=0;points=[];" parent="bx1OYULyR1LC7K4oZG2C-5" vertex="1" connectable="0">
          <mxGeometry x="-0.5833" y="-1" relative="1" as="geometry">
            <mxPoint x="5" y="1" as="offset" />
          </mxGeometry>
        </mxCell>
        <mxCell id="bx1OYULyR1LC7K4oZG2C-7" style="edgeStyle=orthogonalEdgeStyle;rounded=0;orthogonalLoop=1;jettySize=auto;html=1;entryX=0.5;entryY=0;entryDx=0;entryDy=0;" parent="1" source="bx1OYULyR1LC7K4oZG2C-9" target="bx1OYULyR1LC7K4oZG2C-15" edge="1">
          <mxGeometry relative="1" as="geometry" />
        </mxCell>
        <mxCell id="bx1OYULyR1LC7K4oZG2C-8" value="yes" style="edgeLabel;html=1;align=center;verticalAlign=middle;resizable=0;points=[];" parent="bx1OYULyR1LC7K4oZG2C-7" vertex="1" connectable="0">
          <mxGeometry x="-0.7677" relative="1" as="geometry">
            <mxPoint as="offset" />
          </mxGeometry>
        </mxCell>
        <mxCell id="bx1OYULyR1LC7K4oZG2C-9" value="Authenticate ?" style="rhombus;" parent="1" vertex="1">
          <mxGeometry x="246.79" y="110" width="96.43" height="90" as="geometry" />
        </mxCell>
        <mxCell id="bx1OYULyR1LC7K4oZG2C-10" value="" style="shape=sumEllipse;perimeter=ellipsePerimeter;whiteSpace=wrap;html=1;backgroundOutline=1;" parent="1" vertex="1">
          <mxGeometry x="200" y="50" width="30" height="30" as="geometry" />
        </mxCell>
        <mxCell id="bx1OYULyR1LC7K4oZG2C-11" style="edgeStyle=orthogonalEdgeStyle;rounded=0;orthogonalLoop=1;jettySize=auto;html=1;entryX=1;entryY=0.5;entryDx=0;entryDy=0;" parent="1" source="bx1OYULyR1LC7K4oZG2C-15" target="bx1OYULyR1LC7K4oZG2C-4" edge="1">
          <mxGeometry relative="1" as="geometry">
            <Array as="points">
              <mxPoint x="360" y="270" />
              <mxPoint x="360" y="55" />
            </Array>
          </mxGeometry>
        </mxCell>
        <mxCell id="bx1OYULyR1LC7K4oZG2C-12" value="no" style="edgeLabel;html=1;align=center;verticalAlign=middle;resizable=0;points=[];" parent="bx1OYULyR1LC7K4oZG2C-11" vertex="1" connectable="0">
          <mxGeometry x="-0.9586" y="2" relative="1" as="geometry">
            <mxPoint x="5" y="2" as="offset" />
          </mxGeometry>
        </mxCell>
        <mxCell id="bx1OYULyR1LC7K4oZG2C-13" style="edgeStyle=orthogonalEdgeStyle;rounded=0;orthogonalLoop=1;jettySize=auto;html=1;entryX=0.5;entryY=0;entryDx=0;entryDy=0;" parent="1" source="bx1OYULyR1LC7K4oZG2C-15" target="bx1OYULyR1LC7K4oZG2C-18" edge="1">
          <mxGeometry relative="1" as="geometry">
            <Array as="points">
              <mxPoint x="295" y="320" />
              <mxPoint x="295" y="320" />
            </Array>
          </mxGeometry>
        </mxCell>
        <mxCell id="bx1OYULyR1LC7K4oZG2C-14" value="yes" style="edgeLabel;html=1;align=center;verticalAlign=middle;resizable=0;points=[];" parent="bx1OYULyR1LC7K4oZG2C-13" vertex="1" connectable="0">
          <mxGeometry x="-0.2122" relative="1" as="geometry">
            <mxPoint as="offset" />
          </mxGeometry>
        </mxCell>
        <mxCell id="bx1OYULyR1LC7K4oZG2C-15" value="Authorize ?" style="rhombus;whiteSpace=wrap;html=1;" parent="1" vertex="1">
          <mxGeometry x="255" y="230" width="80" height="80" as="geometry" />
        </mxCell>
        <mxCell id="bx1OYULyR1LC7K4oZG2C-16" value="You are here" style="text;html=1;strokeColor=none;fillColor=none;align=center;verticalAlign=middle;whiteSpace=wrap;rounded=0;" parent="1" vertex="1">
          <mxGeometry x="238.39999999999998" y="10" width="113.21" height="30" as="geometry" />
        </mxCell>
        <mxCell id="bx1OYULyR1LC7K4oZG2C-17" value="" style="edgeStyle=orthogonalEdgeStyle;rounded=0;orthogonalLoop=1;jettySize=auto;html=1;" parent="1" source="bx1OYULyR1LC7K4oZG2C-18" target="bx1OYULyR1LC7K4oZG2C-20" edge="1">
          <mxGeometry relative="1" as="geometry" />
        </mxCell>
        <mxCell id="bx1OYULyR1LC7K4oZG2C-18" value="Deactivate card" style="rounded=1;whiteSpace=wrap;html=1;" parent="1" vertex="1">
          <mxGeometry x="240.02" y="342" width="109.98" height="40" as="geometry" />
        </mxCell>
        <mxCell id="bx1OYULyR1LC7K4oZG2C-19" value="" style="edgeStyle=orthogonalEdgeStyle;rounded=0;orthogonalLoop=1;jettySize=auto;html=1;" parent="1" source="bx1OYULyR1LC7K4oZG2C-20" target="bx1OYULyR1LC7K4oZG2C-22" edge="1">
          <mxGeometry relative="1" as="geometry" />
        </mxCell>
        <mxCell id="bx1OYULyR1LC7K4oZG2C-20" value="Provide reason" style="whiteSpace=wrap;html=1;rounded=1;" parent="1" vertex="1">
          <mxGeometry x="235.01" y="400" width="120" height="40" as="geometry" />
        </mxCell>
        <mxCell id="bx1OYULyR1LC7K4oZG2C-21" value="" style="edgeStyle=orthogonalEdgeStyle;rounded=0;orthogonalLoop=1;jettySize=auto;html=1;entryX=0.5;entryY=0;entryDx=0;entryDy=0;" parent="1" source="bx1OYULyR1LC7K4oZG2C-22" target="bx1OYULyR1LC7K4oZG2C-29" edge="1">
          <mxGeometry relative="1" as="geometry">
            <mxPoint x="495" y="470.01" as="targetPoint" />
          </mxGeometry>
        </mxCell>
        <mxCell id="bx1OYULyR1LC7K4oZG2C-22" value="Update status of the card from active to in active" style="whiteSpace=wrap;html=1;rounded=1;" parent="1" vertex="1">
          <mxGeometry x="435.01" y="390" width="120" height="60" as="geometry" />
        </mxCell>
        <mxCell id="bx1OYULyR1LC7K4oZG2C-28" value="" style="edgeStyle=orthogonalEdgeStyle;rounded=0;orthogonalLoop=1;jettySize=auto;html=1;" parent="1" source="bx1OYULyR1LC7K4oZG2C-29" target="bx1OYULyR1LC7K4oZG2C-31" edge="1">
          <mxGeometry relative="1" as="geometry" />
        </mxCell>
        <mxCell id="bx1OYULyR1LC7K4oZG2C-33" value="Cient" style="swimlane;whiteSpace=wrap;html=1;startSize=23;" parent="1" vertex="1">
          <mxGeometry x="190" y="-10" width="210" height="630" as="geometry" />
        </mxCell>
        <mxCell id="bx1OYULyR1LC7K4oZG2C-31" value="Show success message" style="whiteSpace=wrap;html=1;rounded=1;" parent="bx1OYULyR1LC7K4oZG2C-33" vertex="1">
          <mxGeometry x="41.609999999999985" y="510" width="120" height="40" as="geometry" />
        </mxCell>
        <mxCell id="bx1OYULyR1LC7K4oZG2C-32" value="" style="ellipse;html=1;shape=endState;fillColor=strokeColor;" parent="bx1OYULyR1LC7K4oZG2C-33" vertex="1">
          <mxGeometry x="86.61000000000001" y="590" width="30" height="30" as="geometry" />
        </mxCell>
        <mxCell id="bx1OYULyR1LC7K4oZG2C-30" style="edgeStyle=orthogonalEdgeStyle;rounded=0;orthogonalLoop=1;jettySize=auto;html=1;entryX=0.5;entryY=0;entryDx=0;entryDy=0;" parent="bx1OYULyR1LC7K4oZG2C-33" source="bx1OYULyR1LC7K4oZG2C-31" target="bx1OYULyR1LC7K4oZG2C-32" edge="1">
          <mxGeometry relative="1" as="geometry" />
        </mxCell>
      </root>
    </mxGraphModel>
  </diagram>
</mxfile>
